<mxfile host="app.diagrams.net" modified="2023-05-24T10:08:42.430Z" agent="Mozilla/5.0 (Windows NT 10.0; Win64; x64) AppleWebKit/537.36 (KHTML, like Gecko) Chrome/113.0.0.0 Safari/537.36" etag="Jgd5HbBmDKQmqfG8jp_1" version="21.3.3" type="device" pages="2">
  <diagram name="Page-1" id="2YBvvXClWsGukQMizWep">
    <mxGraphModel dx="880" dy="1552" grid="1" gridSize="10" guides="1" tooltips="1" connect="1" arrows="1" fold="1" page="1" pageScale="1" pageWidth="850" pageHeight="1100" math="0" shadow="0">
      <root>
        <mxCell id="0" />
        <mxCell id="1" parent="0" />
        <mxCell id="2-3c9hy2zEPYeIGBVUg2-91" value="" style="endArrow=none;dashed=1;html=1;rounded=0;strokeWidth=2;dashPattern=8 8;" parent="1" edge="1">
          <mxGeometry width="50" height="50" relative="1" as="geometry">
            <mxPoint x="1494" y="1840" as="sourcePoint" />
            <mxPoint x="1494" y="112.5" as="targetPoint" />
          </mxGeometry>
        </mxCell>
        <mxCell id="2-3c9hy2zEPYeIGBVUg2-188" value="" style="rounded=0;whiteSpace=wrap;html=1;" parent="1" vertex="1">
          <mxGeometry x="1198" y="1516.5" width="1070" height="140" as="geometry" />
        </mxCell>
        <mxCell id="2-3c9hy2zEPYeIGBVUg2-182" value="" style="rounded=0;whiteSpace=wrap;html=1;" parent="1" vertex="1">
          <mxGeometry x="1198" y="1321.5" width="1070" height="195" as="geometry" />
        </mxCell>
        <mxCell id="2-3c9hy2zEPYeIGBVUg2-151" value="" style="rounded=0;whiteSpace=wrap;html=1;" parent="1" vertex="1">
          <mxGeometry x="1374" y="1120" width="370" height="120" as="geometry" />
        </mxCell>
        <mxCell id="2-3c9hy2zEPYeIGBVUg2-152" value="Payment Method is confirmed" style="text;html=1;strokeColor=none;fillColor=none;align=center;verticalAlign=middle;whiteSpace=wrap;rounded=0;spacing=0;spacingTop=0;spacingBottom=0;" parent="1" vertex="1">
          <mxGeometry x="1380" y="1120" width="100" height="40" as="geometry" />
        </mxCell>
        <mxCell id="2-3c9hy2zEPYeIGBVUg2-142" value="" style="rounded=0;whiteSpace=wrap;html=1;" parent="1" vertex="1">
          <mxGeometry x="1374" y="962" width="370" height="158" as="geometry" />
        </mxCell>
        <mxCell id="2-3c9hy2zEPYeIGBVUg2-143" value="Alternative" style="text;html=1;strokeColor=default;fillColor=none;align=center;verticalAlign=middle;whiteSpace=wrap;rounded=0;spacing=0;spacingTop=0;spacingBottom=0;" parent="1" vertex="1">
          <mxGeometry x="1374" y="962" width="60" height="25" as="geometry" />
        </mxCell>
        <mxCell id="2-3c9hy2zEPYeIGBVUg2-144" value="Payment Method is not confirmed" style="text;html=1;strokeColor=none;fillColor=none;align=center;verticalAlign=middle;whiteSpace=wrap;rounded=0;spacing=0;spacingTop=0;spacingBottom=0;" parent="1" vertex="1">
          <mxGeometry x="1380" y="992" width="100" height="40" as="geometry" />
        </mxCell>
        <mxCell id="2-3c9hy2zEPYeIGBVUg2-119" value="" style="rounded=0;whiteSpace=wrap;html=1;fillColor=#f5f5f5;fontColor=#333333;strokeColor=#666666;" parent="1" vertex="1">
          <mxGeometry x="788" y="790" width="510" height="85" as="geometry" />
        </mxCell>
        <mxCell id="2-3c9hy2zEPYeIGBVUg2-117" value="" style="rounded=0;whiteSpace=wrap;html=1;fillColor=#f5f5f5;fontColor=#333333;strokeColor=#666666;" parent="1" vertex="1">
          <mxGeometry x="788" y="658" width="510" height="132" as="geometry" />
        </mxCell>
        <mxCell id="2-3c9hy2zEPYeIGBVUg2-118" value="Alternative" style="text;html=1;strokeColor=default;fillColor=none;align=center;verticalAlign=middle;whiteSpace=wrap;rounded=0;spacing=0;spacingTop=0;spacingBottom=0;" parent="1" vertex="1">
          <mxGeometry x="788" y="658" width="60" height="30" as="geometry" />
        </mxCell>
        <mxCell id="2-3c9hy2zEPYeIGBVUg2-41" value="" style="rounded=0;whiteSpace=wrap;html=1;fillColor=#f5f5f5;fontColor=#333333;strokeColor=#666666;" parent="1" vertex="1">
          <mxGeometry x="248" y="424" width="300" height="66" as="geometry" />
        </mxCell>
        <mxCell id="2-3c9hy2zEPYeIGBVUg2-36" value="" style="rounded=0;whiteSpace=wrap;html=1;fillColor=#f5f5f5;fontColor=#333333;strokeColor=#666666;" parent="1" vertex="1">
          <mxGeometry x="248" y="300" width="300" height="124" as="geometry" />
        </mxCell>
        <mxCell id="2-3c9hy2zEPYeIGBVUg2-2" value="Ξεναγός / &lt;br&gt;Πολιτιστικός οργανισμός" style="shape=umlActor;verticalLabelPosition=bottom;verticalAlign=top;html=1;outlineConnect=0;fontStyle=1;" parent="1" vertex="1">
          <mxGeometry x="78" y="20" width="30" height="60" as="geometry" />
        </mxCell>
        <mxCell id="2-3c9hy2zEPYeIGBVUg2-20" value="" style="endArrow=none;dashed=1;html=1;rounded=0;strokeWidth=2;dashPattern=8 8;" parent="1" edge="1">
          <mxGeometry width="50" height="50" relative="1" as="geometry">
            <mxPoint x="208" y="118.33" as="sourcePoint" />
            <mxPoint x="208" y="118.33" as="targetPoint" />
          </mxGeometry>
        </mxCell>
        <mxCell id="2-3c9hy2zEPYeIGBVUg2-21" value="" style="endArrow=none;dashed=1;html=1;rounded=0;strokeWidth=2;dashPattern=8 8;" parent="1" edge="1">
          <mxGeometry width="50" height="50" relative="1" as="geometry">
            <mxPoint x="335" y="1840" as="sourcePoint" />
            <mxPoint x="335" y="120" as="targetPoint" />
          </mxGeometry>
        </mxCell>
        <mxCell id="2-3c9hy2zEPYeIGBVUg2-22" value="" style="endArrow=none;dashed=1;html=1;rounded=0;strokeWidth=2;dashPattern=8 8;" parent="1" edge="1">
          <mxGeometry width="50" height="50" relative="1" as="geometry">
            <mxPoint x="607.9891891891891" y="330" as="sourcePoint" />
            <mxPoint x="607.8" y="120" as="targetPoint" />
          </mxGeometry>
        </mxCell>
        <mxCell id="2-3c9hy2zEPYeIGBVUg2-23" value="" style="endArrow=none;dashed=1;html=1;rounded=0;strokeWidth=2;dashPattern=8 8;" parent="1" source="2-3c9hy2zEPYeIGBVUg2-55" edge="1">
          <mxGeometry width="50" height="50" relative="1" as="geometry">
            <mxPoint x="728" y="1930" as="sourcePoint" />
            <mxPoint x="728" y="120" as="targetPoint" />
          </mxGeometry>
        </mxCell>
        <mxCell id="2-3c9hy2zEPYeIGBVUg2-26" value="" style="endArrow=none;dashed=1;html=1;rounded=0;strokeWidth=2;dashPattern=8 8;exitX=0.5;exitY=1;exitDx=0;exitDy=0;" parent="1" source="2-3c9hy2zEPYeIGBVUg2-191" target="2-3c9hy2zEPYeIGBVUg2-25" edge="1">
          <mxGeometry width="50" height="50" relative="1" as="geometry">
            <mxPoint x="208" y="1930" as="sourcePoint" />
            <mxPoint x="208" y="120" as="targetPoint" />
          </mxGeometry>
        </mxCell>
        <mxCell id="2-3c9hy2zEPYeIGBVUg2-25" value="" style="rounded=0;whiteSpace=wrap;html=1;fillColor=#C3ABD0;strokeColor=#000000;" parent="1" vertex="1">
          <mxGeometry x="203" y="120" width="10" height="60" as="geometry" />
        </mxCell>
        <mxCell id="2-3c9hy2zEPYeIGBVUg2-27" value="" style="endArrow=none;dashed=1;html=1;rounded=0;strokeWidth=2;dashPattern=8 8;" parent="1" edge="1">
          <mxGeometry width="50" height="50" relative="1" as="geometry">
            <mxPoint x="88" y="1840" as="sourcePoint" />
            <mxPoint x="88" y="120" as="targetPoint" />
          </mxGeometry>
        </mxCell>
        <mxCell id="2-3c9hy2zEPYeIGBVUg2-28" value="" style="endArrow=classic;html=1;rounded=0;entryX=-0.008;entryY=0.677;entryDx=0;entryDy=0;entryPerimeter=0;" parent="1" edge="1">
          <mxGeometry width="50" height="50" relative="1" as="geometry">
            <mxPoint x="88" y="150" as="sourcePoint" />
            <mxPoint x="202.92000000000007" y="150.6199999999999" as="targetPoint" />
          </mxGeometry>
        </mxCell>
        <mxCell id="2-3c9hy2zEPYeIGBVUg2-30" value="" style="endArrow=classic;html=1;rounded=0;" parent="1" edge="1">
          <mxGeometry width="50" height="50" relative="1" as="geometry">
            <mxPoint x="218" y="180" as="sourcePoint" />
            <mxPoint x="328" y="180" as="targetPoint" />
          </mxGeometry>
        </mxCell>
        <mxCell id="2-3c9hy2zEPYeIGBVUg2-31" value="show()" style="text;html=1;align=center;verticalAlign=middle;resizable=0;points=[];autosize=1;strokeColor=none;fillColor=none;labelPosition=center;verticalLabelPosition=middle;spacing=0;" parent="1" vertex="1">
          <mxGeometry x="243" y="156" width="60" height="20" as="geometry" />
        </mxCell>
        <mxCell id="2-3c9hy2zEPYeIGBVUg2-32" value="" style="rounded=0;whiteSpace=wrap;html=1;fillColor=#C3ABD0;strokeColor=#000000;" parent="1" vertex="1">
          <mxGeometry x="331" y="179" width="10" height="301" as="geometry" />
        </mxCell>
        <mxCell id="2-3c9hy2zEPYeIGBVUg2-33" value="" style="endArrow=classic;html=1;rounded=0;" parent="1" edge="1">
          <mxGeometry width="50" height="50" relative="1" as="geometry">
            <mxPoint x="98" y="214" as="sourcePoint" />
            <mxPoint x="328" y="214" as="targetPoint" />
          </mxGeometry>
        </mxCell>
        <mxCell id="2-3c9hy2zEPYeIGBVUg2-34" style="edgeStyle=orthogonalEdgeStyle;rounded=0;orthogonalLoop=1;jettySize=auto;html=1;exitX=1.062;exitY=0.171;exitDx=0;exitDy=0;exitPerimeter=0;entryX=1.133;entryY=0.286;entryDx=0;entryDy=0;entryPerimeter=0;" parent="1" source="2-3c9hy2zEPYeIGBVUg2-32" target="2-3c9hy2zEPYeIGBVUg2-32" edge="1">
          <mxGeometry relative="1" as="geometry">
            <mxPoint x="358" y="270" as="targetPoint" />
            <Array as="points">
              <mxPoint x="358" y="231" />
              <mxPoint x="358" y="265" />
              <mxPoint x="342" y="265" />
            </Array>
          </mxGeometry>
        </mxCell>
        <mxCell id="2-3c9hy2zEPYeIGBVUg2-35" value="validateTourInfo()" style="text;html=1;align=center;verticalAlign=middle;resizable=0;points=[];autosize=1;strokeColor=none;fillColor=none;spacing=0;" parent="1" vertex="1">
          <mxGeometry x="350.56" y="240" width="110" height="20" as="geometry" />
        </mxCell>
        <mxCell id="2-3c9hy2zEPYeIGBVUg2-39" value="Info is missing" style="text;html=1;strokeColor=none;fillColor=none;align=center;verticalAlign=middle;whiteSpace=wrap;rounded=0;spacing=0;spacingTop=0;spacingBottom=0;" parent="1" vertex="1">
          <mxGeometry x="253" y="335" width="60" height="30" as="geometry" />
        </mxCell>
        <mxCell id="2-3c9hy2zEPYeIGBVUg2-40" value="Alternative" style="text;html=1;strokeColor=default;fillColor=none;align=center;verticalAlign=middle;whiteSpace=wrap;rounded=0;spacing=0;spacingTop=0;spacingBottom=0;" parent="1" vertex="1">
          <mxGeometry x="248" y="300" width="60" height="30" as="geometry" />
        </mxCell>
        <mxCell id="2-3c9hy2zEPYeIGBVUg2-42" value="Info is not missing" style="text;html=1;strokeColor=none;fillColor=none;align=center;verticalAlign=middle;whiteSpace=wrap;rounded=0;spacing=0;spacingTop=0;spacingBottom=0;" parent="1" vertex="1">
          <mxGeometry x="253" y="440" width="60" height="30" as="geometry" />
        </mxCell>
        <mxCell id="2-3c9hy2zEPYeIGBVUg2-49" value="" style="endArrow=none;dashed=1;html=1;rounded=0;strokeWidth=2;dashPattern=8 8;" parent="1" edge="1">
          <mxGeometry width="50" height="50" relative="1" as="geometry">
            <mxPoint x="608" y="1840" as="sourcePoint" />
            <mxPoint x="607.9984886649875" y="354" as="targetPoint" />
          </mxGeometry>
        </mxCell>
        <mxCell id="2-3c9hy2zEPYeIGBVUg2-52" value="" style="endArrow=classic;html=1;rounded=0;exitX=1.006;exitY=0.86;exitDx=0;exitDy=0;exitPerimeter=0;" parent="1" edge="1">
          <mxGeometry width="50" height="50" relative="1" as="geometry">
            <mxPoint x="341.05999999999995" y="471.8599999999999" as="sourcePoint" />
            <mxPoint x="718" y="472" as="targetPoint" />
            <Array as="points">
              <mxPoint x="638" y="472" />
            </Array>
          </mxGeometry>
        </mxCell>
        <mxCell id="2-3c9hy2zEPYeIGBVUg2-56" value="" style="endArrow=none;dashed=1;html=1;rounded=0;strokeWidth=2;dashPattern=8 8;" parent="1" target="2-3c9hy2zEPYeIGBVUg2-55" edge="1">
          <mxGeometry width="50" height="50" relative="1" as="geometry">
            <mxPoint x="728" y="1840" as="sourcePoint" />
            <mxPoint x="728" y="120" as="targetPoint" />
          </mxGeometry>
        </mxCell>
        <mxCell id="2-3c9hy2zEPYeIGBVUg2-55" value="" style="rounded=0;whiteSpace=wrap;html=1;fillColor=#C3ABD0;strokeColor=#000000;" parent="1" vertex="1">
          <mxGeometry x="724" y="470" width="10" height="120" as="geometry" />
        </mxCell>
        <mxCell id="2-3c9hy2zEPYeIGBVUg2-57" value="" style="endArrow=classic;html=1;rounded=0;" parent="1" edge="1">
          <mxGeometry width="50" height="50" relative="1" as="geometry">
            <mxPoint x="98" y="558" as="sourcePoint" />
            <mxPoint x="718" y="558" as="targetPoint" />
          </mxGeometry>
        </mxCell>
        <mxCell id="2-3c9hy2zEPYeIGBVUg2-60" value="showMessage()" style="text;html=1;align=center;verticalAlign=middle;resizable=0;points=[];autosize=1;strokeColor=none;fillColor=none;spacing=0;" parent="1" vertex="1">
          <mxGeometry x="355" y="319.5" width="100" height="20" as="geometry" />
        </mxCell>
        <mxCell id="2-3c9hy2zEPYeIGBVUg2-65" value="" style="endArrow=classic;html=1;rounded=0;" parent="1" edge="1">
          <mxGeometry width="50" height="50" relative="1" as="geometry">
            <mxPoint x="718" y="506" as="sourcePoint" />
            <mxPoint x="618" y="506" as="targetPoint" />
          </mxGeometry>
        </mxCell>
        <mxCell id="2-3c9hy2zEPYeIGBVUg2-66" value="loadTags()" style="text;html=1;align=center;verticalAlign=middle;resizable=0;points=[];autosize=1;strokeColor=none;fillColor=none;spacing=0;" parent="1" vertex="1">
          <mxGeometry x="628" y="486" width="80" height="20" as="geometry" />
        </mxCell>
        <mxCell id="2-3c9hy2zEPYeIGBVUg2-67" value="" style="endArrow=classic;html=1;rounded=0;dashed=1;" parent="1" edge="1">
          <mxGeometry width="50" height="50" relative="1" as="geometry">
            <mxPoint x="618" y="536" as="sourcePoint" />
            <mxPoint x="718" y="536" as="targetPoint" />
          </mxGeometry>
        </mxCell>
        <mxCell id="2-3c9hy2zEPYeIGBVUg2-68" value="retTagsList()" style="text;html=1;align=center;verticalAlign=middle;resizable=0;points=[];autosize=1;strokeColor=none;fillColor=none;spacing=0;" parent="1" vertex="1">
          <mxGeometry x="613" y="515" width="90" height="20" as="geometry" />
        </mxCell>
        <mxCell id="2-3c9hy2zEPYeIGBVUg2-69" value="show()" style="text;html=1;align=center;verticalAlign=middle;resizable=0;points=[];autosize=1;strokeColor=none;fillColor=none;labelPosition=center;verticalLabelPosition=middle;spacing=0;" parent="1" vertex="1">
          <mxGeometry x="391" y="454" width="60" height="20" as="geometry" />
        </mxCell>
        <mxCell id="2-3c9hy2zEPYeIGBVUg2-72" value="" style="rounded=0;whiteSpace=wrap;html=1;fillColor=#C3ABD0;strokeColor=#000000;" parent="1" vertex="1">
          <mxGeometry x="603" y="506" width="10" height="29" as="geometry" />
        </mxCell>
        <mxCell id="2-3c9hy2zEPYeIGBVUg2-83" value="" style="endArrow=classic;html=1;rounded=0;entryX=-0.067;entryY=0.006;entryDx=0;entryDy=0;entryPerimeter=0;" parent="1" target="2-3c9hy2zEPYeIGBVUg2-97" edge="1">
          <mxGeometry width="50" height="50" relative="1" as="geometry">
            <mxPoint x="739" y="578" as="sourcePoint" />
            <mxPoint x="879" y="578" as="targetPoint" />
          </mxGeometry>
        </mxCell>
        <mxCell id="2-3c9hy2zEPYeIGBVUg2-86" value="" style="endArrow=none;dashed=1;html=1;rounded=0;strokeWidth=2;dashPattern=8 8;" parent="1" edge="1">
          <mxGeometry width="50" height="50" relative="1" as="geometry">
            <mxPoint x="898" y="1840" as="sourcePoint" />
            <mxPoint x="898" y="120" as="targetPoint" />
          </mxGeometry>
        </mxCell>
        <mxCell id="2-3c9hy2zEPYeIGBVUg2-87" value="show()" style="text;html=1;align=center;verticalAlign=middle;resizable=0;points=[];autosize=1;strokeColor=none;fillColor=none;labelPosition=center;verticalLabelPosition=middle;spacing=0;" parent="1" vertex="1">
          <mxGeometry x="791" y="561" width="60" height="20" as="geometry" />
        </mxCell>
        <mxCell id="2-3c9hy2zEPYeIGBVUg2-89" value="" style="endArrow=none;dashed=1;html=1;rounded=0;strokeWidth=2;dashPattern=8 8;" parent="1" edge="1">
          <mxGeometry width="50" height="50" relative="1" as="geometry">
            <mxPoint x="1093" y="1840" as="sourcePoint" />
            <mxPoint x="1093.33" y="121.67" as="targetPoint" />
          </mxGeometry>
        </mxCell>
        <mxCell id="2-3c9hy2zEPYeIGBVUg2-94" value="" style="endArrow=none;dashed=1;html=1;rounded=0;strokeWidth=2;dashPattern=8 8;" parent="1" edge="1">
          <mxGeometry width="50" height="50" relative="1" as="geometry">
            <mxPoint x="1887" y="1840" as="sourcePoint" />
            <mxPoint x="1886.67" y="110.84" as="targetPoint" />
          </mxGeometry>
        </mxCell>
        <mxCell id="2-3c9hy2zEPYeIGBVUg2-97" value="" style="rounded=0;whiteSpace=wrap;html=1;fillColor=#C3ABD0;strokeColor=#000000;" parent="1" vertex="1">
          <mxGeometry x="894" y="576" width="10" height="304" as="geometry" />
        </mxCell>
        <mxCell id="2-3c9hy2zEPYeIGBVUg2-98" value="" style="endArrow=classic;html=1;rounded=0;" parent="1" edge="1">
          <mxGeometry width="50" height="50" relative="1" as="geometry">
            <mxPoint x="98" y="620" as="sourcePoint" />
            <mxPoint x="888" y="620" as="targetPoint" />
          </mxGeometry>
        </mxCell>
        <mxCell id="2-3c9hy2zEPYeIGBVUg2-106" value="checkFileSize()" style="text;html=1;align=center;verticalAlign=middle;resizable=0;points=[];autosize=1;strokeColor=none;fillColor=none;spacing=0;" parent="1" vertex="1">
          <mxGeometry x="914" y="631" width="100" height="20" as="geometry" />
        </mxCell>
        <mxCell id="2-3c9hy2zEPYeIGBVUg2-107" value="" style="endArrow=classic;html=1;rounded=0;" parent="1" edge="1">
          <mxGeometry width="50" height="50" relative="1" as="geometry">
            <mxPoint x="910" y="650" as="sourcePoint" />
            <mxPoint x="1088" y="650" as="targetPoint" />
          </mxGeometry>
        </mxCell>
        <mxCell id="2-3c9hy2zEPYeIGBVUg2-108" value="" style="rounded=0;whiteSpace=wrap;html=1;fillColor=#C3ABD0;strokeColor=#000000;" parent="1" vertex="1">
          <mxGeometry x="1088" y="651" width="10" height="199" as="geometry" />
        </mxCell>
        <mxCell id="2-3c9hy2zEPYeIGBVUg2-109" value="" style="endArrow=classic;html=1;rounded=0;dashed=1;exitX=0.5;exitY=1;exitDx=0;exitDy=0;" parent="1" edge="1">
          <mxGeometry width="50" height="50" relative="1" as="geometry">
            <mxPoint x="1087" y="810" as="sourcePoint" />
            <mxPoint x="907" y="811" as="targetPoint" />
          </mxGeometry>
        </mxCell>
        <mxCell id="2-3c9hy2zEPYeIGBVUg2-111" value="FileSize OK" style="text;html=1;align=center;verticalAlign=middle;resizable=0;points=[];autosize=1;strokeColor=none;fillColor=none;spacing=0;" parent="1" vertex="1">
          <mxGeometry x="958" y="790" width="80" height="20" as="geometry" />
        </mxCell>
        <mxCell id="2-3c9hy2zEPYeIGBVUg2-112" value="" style="endArrow=classic;html=1;rounded=0;dashed=1;exitX=0.5;exitY=1;exitDx=0;exitDy=0;" parent="1" edge="1">
          <mxGeometry width="50" height="50" relative="1" as="geometry">
            <mxPoint x="1088" y="693" as="sourcePoint" />
            <mxPoint x="908" y="694" as="targetPoint" />
          </mxGeometry>
        </mxCell>
        <mxCell id="2-3c9hy2zEPYeIGBVUg2-113" value="FileSize too big" style="text;html=1;align=center;verticalAlign=middle;resizable=0;points=[];autosize=1;strokeColor=none;fillColor=none;spacing=0;" parent="1" vertex="1">
          <mxGeometry x="928" y="674" width="100" height="20" as="geometry" />
        </mxCell>
        <mxCell id="2-3c9hy2zEPYeIGBVUg2-116" value="showMessage()" style="text;html=1;align=center;verticalAlign=middle;resizable=0;points=[];autosize=1;strokeColor=none;fillColor=none;spacing=0;" parent="1" vertex="1">
          <mxGeometry x="935" y="708" width="100" height="20" as="geometry" />
        </mxCell>
        <mxCell id="2-3c9hy2zEPYeIGBVUg2-120" value="Files are too big" style="text;html=1;strokeColor=none;fillColor=none;align=center;verticalAlign=middle;whiteSpace=wrap;rounded=0;spacing=0;spacingTop=0;spacingBottom=0;" parent="1" vertex="1">
          <mxGeometry x="798" y="694" width="60" height="30" as="geometry" />
        </mxCell>
        <mxCell id="2-3c9hy2zEPYeIGBVUg2-121" value="Files size is in limits" style="text;html=1;strokeColor=none;fillColor=none;align=center;verticalAlign=middle;whiteSpace=wrap;rounded=0;spacing=0;spacingTop=0;spacingBottom=0;" parent="1" vertex="1">
          <mxGeometry x="798" y="811" width="60" height="30" as="geometry" />
        </mxCell>
        <mxCell id="2-3c9hy2zEPYeIGBVUg2-123" value="" style="endArrow=classic;html=1;rounded=0;exitX=0.889;exitY=0.968;exitDx=0;exitDy=0;exitPerimeter=0;" parent="1" edge="1">
          <mxGeometry width="50" height="50" relative="1" as="geometry">
            <mxPoint x="905" y="869" as="sourcePoint" />
            <mxPoint x="1488" y="869" as="targetPoint" />
            <Array as="points">
              <mxPoint x="1158" y="869" />
            </Array>
          </mxGeometry>
        </mxCell>
        <mxCell id="2-3c9hy2zEPYeIGBVUg2-124" value="show()" style="text;html=1;align=center;verticalAlign=middle;resizable=0;points=[];autosize=1;strokeColor=none;fillColor=none;labelPosition=center;verticalLabelPosition=middle;spacing=0;" parent="1" vertex="1">
          <mxGeometry x="963" y="849" width="60" height="20" as="geometry" />
        </mxCell>
        <mxCell id="2-3c9hy2zEPYeIGBVUg2-125" value="" style="rounded=0;whiteSpace=wrap;html=1;fillColor=#C3ABD0;strokeColor=#000000;" parent="1" vertex="1">
          <mxGeometry x="1489" y="842.5" width="10" height="387.5" as="geometry" />
        </mxCell>
        <mxCell id="2-3c9hy2zEPYeIGBVUg2-126" value="" style="endArrow=classic;html=1;rounded=0;" parent="1" edge="1">
          <mxGeometry width="50" height="50" relative="1" as="geometry">
            <mxPoint x="104" y="892" as="sourcePoint" />
            <mxPoint x="1488" y="890" as="targetPoint" />
          </mxGeometry>
        </mxCell>
        <mxCell id="2-3c9hy2zEPYeIGBVUg2-130" value="validatePaymentMethod()" style="text;html=1;align=center;verticalAlign=middle;resizable=0;points=[];autosize=1;strokeColor=none;fillColor=none;spacing=0;" parent="1" vertex="1">
          <mxGeometry x="1501" y="886.5" width="160" height="20" as="geometry" />
        </mxCell>
        <mxCell id="2-3c9hy2zEPYeIGBVUg2-133" value="" style="endArrow=classic;html=1;rounded=0;" parent="1" edge="1">
          <mxGeometry width="50" height="50" relative="1" as="geometry">
            <mxPoint x="1500" y="902.5" as="sourcePoint" />
            <mxPoint x="1500" y="942.5" as="targetPoint" />
            <Array as="points">
              <mxPoint x="1530" y="902.5" />
              <mxPoint x="1530" y="942.5" />
            </Array>
          </mxGeometry>
        </mxCell>
        <mxCell id="2-3c9hy2zEPYeIGBVUg2-141" value="showMessage()" style="text;html=1;align=center;verticalAlign=middle;resizable=0;points=[];autosize=1;strokeColor=none;fillColor=none;spacing=0;" parent="1" vertex="1">
          <mxGeometry x="1515" y="992" width="100" height="20" as="geometry" />
        </mxCell>
        <mxCell id="2-3c9hy2zEPYeIGBVUg2-157" value="create()" style="text;html=1;align=center;verticalAlign=middle;resizable=0;points=[];autosize=1;strokeColor=none;fillColor=none;labelPosition=center;verticalLabelPosition=middle;spacing=0;" parent="1" vertex="1">
          <mxGeometry x="1410" y="1178" width="60" height="20" as="geometry" />
        </mxCell>
        <mxCell id="2-3c9hy2zEPYeIGBVUg2-161" value="" style="endArrow=classic;html=1;rounded=0;exitX=0.889;exitY=0.968;exitDx=0;exitDy=0;exitPerimeter=0;" parent="1" edge="1">
          <mxGeometry width="50" height="50" relative="1" as="geometry">
            <mxPoint x="1499" y="1225" as="sourcePoint" />
            <mxPoint x="1870" y="1224.5" as="targetPoint" />
            <Array as="points" />
          </mxGeometry>
        </mxCell>
        <mxCell id="2-3c9hy2zEPYeIGBVUg2-162" value="show()" style="text;html=1;align=center;verticalAlign=middle;resizable=0;points=[];autosize=1;strokeColor=none;fillColor=none;labelPosition=center;verticalLabelPosition=middle;spacing=0;" parent="1" vertex="1">
          <mxGeometry x="1590.33" y="1199" width="60" height="20" as="geometry" />
        </mxCell>
        <mxCell id="2-3c9hy2zEPYeIGBVUg2-165" value="" style="endArrow=classic;html=1;rounded=0;" parent="1" edge="1">
          <mxGeometry width="50" height="50" relative="1" as="geometry">
            <mxPoint x="1488" y="1199" as="sourcePoint" />
            <mxPoint x="1358" y="1200" as="targetPoint" />
          </mxGeometry>
        </mxCell>
        <mxCell id="2-3c9hy2zEPYeIGBVUg2-166" value="" style="rounded=0;whiteSpace=wrap;html=1;fillColor=#C3ABD0;strokeColor=#000000;" parent="1" vertex="1">
          <mxGeometry x="1882" y="1222" width="10" height="484.5" as="geometry" />
        </mxCell>
        <mxCell id="2-3c9hy2zEPYeIGBVUg2-172" value="" style="endArrow=classic;html=1;rounded=0;entryX=1.1;entryY=0.855;entryDx=0;entryDy=0;entryPerimeter=0;" parent="1" target="2-3c9hy2zEPYeIGBVUg2-159" edge="1">
          <mxGeometry width="50" height="50" relative="1" as="geometry">
            <mxPoint x="1878" y="1357" as="sourcePoint" />
            <mxPoint x="1358" y="1360" as="targetPoint" />
          </mxGeometry>
        </mxCell>
        <mxCell id="2-3c9hy2zEPYeIGBVUg2-177" value="setPublic(true)" style="text;html=1;align=center;verticalAlign=middle;resizable=0;points=[];autosize=1;strokeColor=none;fillColor=none;labelPosition=center;verticalLabelPosition=middle;spacing=0;" parent="1" vertex="1">
          <mxGeometry x="1570" y="1336.5" width="100" height="20" as="geometry" />
        </mxCell>
        <mxCell id="2-3c9hy2zEPYeIGBVUg2-179" value="showMessage()" style="text;html=1;align=center;verticalAlign=middle;resizable=0;points=[];autosize=1;strokeColor=none;fillColor=none;spacing=0;" parent="1" vertex="1">
          <mxGeometry x="1898" y="1380" width="100" height="20" as="geometry" />
        </mxCell>
        <mxCell id="2-3c9hy2zEPYeIGBVUg2-181" value="showMessage()" style="text;html=1;align=center;verticalAlign=middle;resizable=0;points=[];autosize=1;strokeColor=none;fillColor=none;spacing=0;" parent="1" vertex="1">
          <mxGeometry x="1898" y="1530" width="100" height="20" as="geometry" />
        </mxCell>
        <mxCell id="2-3c9hy2zEPYeIGBVUg2-183" value="Alternative" style="text;html=1;strokeColor=default;fillColor=none;align=center;verticalAlign=middle;whiteSpace=wrap;rounded=0;spacing=0;spacingTop=0;spacingBottom=0;" parent="1" vertex="1">
          <mxGeometry x="1198" y="1321.5" width="60" height="25" as="geometry" />
        </mxCell>
        <mxCell id="2-3c9hy2zEPYeIGBVUg2-184" value="Confirmation for publishing" style="text;html=1;strokeColor=none;fillColor=none;align=center;verticalAlign=middle;whiteSpace=wrap;rounded=0;spacing=0;spacingTop=0;spacingBottom=0;" parent="1" vertex="1">
          <mxGeometry x="1200" y="1408" width="100" height="40" as="geometry" />
        </mxCell>
        <mxCell id="2-3c9hy2zEPYeIGBVUg2-189" value="Confirmation for saving" style="text;html=1;strokeColor=none;fillColor=none;align=center;verticalAlign=middle;whiteSpace=wrap;rounded=0;spacing=0;spacingTop=0;spacingBottom=0;" parent="1" vertex="1">
          <mxGeometry x="1200" y="1564.75" width="100" height="43.5" as="geometry" />
        </mxCell>
        <mxCell id="2-3c9hy2zEPYeIGBVUg2-190" value="" style="endArrow=classic;html=1;rounded=0;" parent="1" edge="1">
          <mxGeometry width="50" height="50" relative="1" as="geometry">
            <mxPoint x="1888" y="1707" as="sourcePoint" />
            <mxPoint x="218" y="1707" as="targetPoint" />
          </mxGeometry>
        </mxCell>
        <mxCell id="2-3c9hy2zEPYeIGBVUg2-191" value="" style="rounded=0;whiteSpace=wrap;html=1;fillColor=#C3ABD0;strokeColor=#000000;" parent="1" vertex="1">
          <mxGeometry x="202" y="1706" width="10" height="134" as="geometry" />
        </mxCell>
        <mxCell id="2-3c9hy2zEPYeIGBVUg2-192" value="show()" style="text;html=1;align=center;verticalAlign=middle;resizable=0;points=[];autosize=1;strokeColor=none;fillColor=none;labelPosition=center;verticalLabelPosition=middle;spacing=0;" parent="1" vertex="1">
          <mxGeometry x="1579" y="1686.5" width="60" height="20" as="geometry" />
        </mxCell>
        <mxCell id="BZDd44qQGY4PULbsGoYG-5" value="" style="endArrow=classic;html=1;rounded=0;" parent="1" edge="1">
          <mxGeometry width="50" height="50" relative="1" as="geometry">
            <mxPoint x="345" y="340" as="sourcePoint" />
            <mxPoint x="465" y="340" as="targetPoint" />
          </mxGeometry>
        </mxCell>
        <mxCell id="BZDd44qQGY4PULbsGoYG-7" style="edgeStyle=orthogonalEdgeStyle;rounded=0;orthogonalLoop=1;jettySize=auto;html=1;exitX=0.977;exitY=0.273;exitDx=0;exitDy=0;exitPerimeter=0;entryX=1.044;entryY=0.736;entryDx=0;entryDy=0;entryPerimeter=0;" parent="1" edge="1">
          <mxGeometry relative="1" as="geometry">
            <mxPoint x="340.99999999999983" y="411.53600000000006" as="targetPoint" />
            <Array as="points">
              <mxPoint x="358.56" y="381" />
              <mxPoint x="358.56" y="412" />
            </Array>
            <mxPoint x="341.56" y="381" as="sourcePoint" />
          </mxGeometry>
        </mxCell>
        <mxCell id="BZDd44qQGY4PULbsGoYG-8" value="validateTourInfo()" style="text;html=1;align=center;verticalAlign=middle;resizable=0;points=[];autosize=1;strokeColor=none;fillColor=none;spacing=0;" parent="1" vertex="1">
          <mxGeometry x="350.56" y="390" width="110" height="20" as="geometry" />
        </mxCell>
        <mxCell id="BZDd44qQGY4PULbsGoYG-9" value="" style="endArrow=classic;html=1;rounded=0;" parent="1" edge="1">
          <mxGeometry width="50" height="50" relative="1" as="geometry">
            <mxPoint x="96" y="372" as="sourcePoint" />
            <mxPoint x="326" y="372" as="targetPoint" />
          </mxGeometry>
        </mxCell>
        <mxCell id="BZDd44qQGY4PULbsGoYG-4" value="" style="endArrow=none;dashed=1;html=1;rounded=0;strokeWidth=2;dashPattern=8 8;" parent="1" edge="1">
          <mxGeometry width="50" height="50" relative="1" as="geometry">
            <mxPoint x="480" y="1840" as="sourcePoint" />
            <mxPoint x="480" y="120" as="targetPoint" />
          </mxGeometry>
        </mxCell>
        <mxCell id="BZDd44qQGY4PULbsGoYG-11" value="" style="rounded=0;whiteSpace=wrap;html=1;fillColor=#C3ABD0;strokeColor=#000000;" parent="1" vertex="1">
          <mxGeometry x="474" y="339.5" width="10" height="20" as="geometry" />
        </mxCell>
        <mxCell id="BZDd44qQGY4PULbsGoYG-13" value="" style="endArrow=none;dashed=1;html=1;rounded=0;strokeWidth=2;dashPattern=8 8;" parent="1" edge="1">
          <mxGeometry width="50" height="50" relative="1" as="geometry">
            <mxPoint x="1214.0177705977385" y="728" as="sourcePoint" />
            <mxPoint x="1215" y="120.00000000000001" as="targetPoint" />
          </mxGeometry>
        </mxCell>
        <mxCell id="BZDd44qQGY4PULbsGoYG-14" value="" style="endArrow=classic;html=1;rounded=0;" parent="1" edge="1">
          <mxGeometry width="50" height="50" relative="1" as="geometry">
            <mxPoint x="910" y="728" as="sourcePoint" />
            <mxPoint x="1208" y="728" as="targetPoint" />
          </mxGeometry>
        </mxCell>
        <mxCell id="BZDd44qQGY4PULbsGoYG-16" value="" style="endArrow=none;dashed=1;html=1;rounded=0;strokeWidth=2;dashPattern=8 8;" parent="1" edge="1">
          <mxGeometry width="50" height="50" relative="1" as="geometry">
            <mxPoint x="1218" y="1320" as="sourcePoint" />
            <mxPoint x="1215.027477102416" y="750" as="targetPoint" />
          </mxGeometry>
        </mxCell>
        <mxCell id="BZDd44qQGY4PULbsGoYG-15" value="" style="rounded=0;whiteSpace=wrap;html=1;fillColor=#C3ABD0;strokeColor=#000000;" parent="1" vertex="1">
          <mxGeometry x="1209" y="728" width="10" height="22" as="geometry" />
        </mxCell>
        <mxCell id="BZDd44qQGY4PULbsGoYG-21" value="" style="endArrow=classic;html=1;rounded=0;" parent="1" edge="1">
          <mxGeometry width="50" height="50" relative="1" as="geometry">
            <mxPoint x="98" y="750" as="sourcePoint" />
            <mxPoint x="888" y="750" as="targetPoint" />
          </mxGeometry>
        </mxCell>
        <mxCell id="BZDd44qQGY4PULbsGoYG-22" value="checkFileSize()" style="text;html=1;align=center;verticalAlign=middle;resizable=0;points=[];autosize=1;strokeColor=none;fillColor=none;spacing=0;" parent="1" vertex="1">
          <mxGeometry x="913" y="750" width="100" height="20" as="geometry" />
        </mxCell>
        <mxCell id="BZDd44qQGY4PULbsGoYG-23" value="" style="endArrow=classic;html=1;rounded=0;" parent="1" edge="1">
          <mxGeometry width="50" height="50" relative="1" as="geometry">
            <mxPoint x="909" y="769" as="sourcePoint" />
            <mxPoint x="1087" y="769" as="targetPoint" />
          </mxGeometry>
        </mxCell>
        <mxCell id="BZDd44qQGY4PULbsGoYG-25" value="" style="endArrow=none;dashed=1;html=1;rounded=0;strokeWidth=2;dashPattern=8 8;" parent="1" edge="1">
          <mxGeometry width="50" height="50" relative="1" as="geometry">
            <mxPoint x="1701" y="1320" as="sourcePoint" />
            <mxPoint x="1701.33" y="112.5" as="targetPoint" />
          </mxGeometry>
        </mxCell>
        <mxCell id="BZDd44qQGY4PULbsGoYG-26" value="" style="endArrow=classic;html=1;rounded=0;" parent="1" edge="1">
          <mxGeometry width="50" height="50" relative="1" as="geometry">
            <mxPoint x="1499" y="1012" as="sourcePoint" />
            <mxPoint x="1690" y="1012.5" as="targetPoint" />
          </mxGeometry>
        </mxCell>
        <mxCell id="BZDd44qQGY4PULbsGoYG-27" value="" style="rounded=0;whiteSpace=wrap;html=1;fillColor=#C3ABD0;strokeColor=#000000;" parent="1" vertex="1">
          <mxGeometry x="1696" y="1012" width="10" height="22" as="geometry" />
        </mxCell>
        <mxCell id="BZDd44qQGY4PULbsGoYG-28" value="" style="endArrow=classic;html=1;rounded=0;" parent="1" edge="1">
          <mxGeometry width="50" height="50" relative="1" as="geometry">
            <mxPoint x="106" y="1037.25" as="sourcePoint" />
            <mxPoint x="1489" y="1035.25" as="targetPoint" />
          </mxGeometry>
        </mxCell>
        <mxCell id="BZDd44qQGY4PULbsGoYG-29" value="validatePaymentMethod()" style="text;html=1;align=center;verticalAlign=middle;resizable=0;points=[];autosize=1;strokeColor=none;fillColor=none;spacing=0;" parent="1" vertex="1">
          <mxGeometry x="1500" y="1042" width="160" height="20" as="geometry" />
        </mxCell>
        <mxCell id="BZDd44qQGY4PULbsGoYG-30" value="" style="endArrow=classic;html=1;rounded=0;" parent="1" edge="1">
          <mxGeometry width="50" height="50" relative="1" as="geometry">
            <mxPoint x="1500" y="1058" as="sourcePoint" />
            <mxPoint x="1499" y="1098" as="targetPoint" />
            <Array as="points">
              <mxPoint x="1529" y="1058" />
              <mxPoint x="1529" y="1098" />
            </Array>
          </mxGeometry>
        </mxCell>
        <mxCell id="BZDd44qQGY4PULbsGoYG-31" value="" style="endArrow=none;dashed=1;html=1;rounded=0;strokeWidth=2;dashPattern=8 8;" parent="1" target="2-3c9hy2zEPYeIGBVUg2-159" edge="1">
          <mxGeometry width="50" height="50" relative="1" as="geometry">
            <mxPoint x="1312" y="1840" as="sourcePoint" />
            <mxPoint x="1312" y="1232.5" as="targetPoint" />
          </mxGeometry>
        </mxCell>
        <mxCell id="2-3c9hy2zEPYeIGBVUg2-159" value="" style="rounded=0;whiteSpace=wrap;html=1;fillColor=#C3ABD0;strokeColor=#000000;" parent="1" vertex="1">
          <mxGeometry x="1307" y="1242.5" width="10" height="137.5" as="geometry" />
        </mxCell>
        <mxCell id="2-3c9hy2zEPYeIGBVUg2-168" value="" style="endArrow=classic;html=1;rounded=0;" parent="1" edge="1">
          <mxGeometry width="50" height="50" relative="1" as="geometry">
            <mxPoint x="96" y="1270" as="sourcePoint" />
            <mxPoint x="1878" y="1266" as="targetPoint" />
          </mxGeometry>
        </mxCell>
        <mxCell id="BZDd44qQGY4PULbsGoYG-35" value="" style="endArrow=none;dashed=1;html=1;rounded=0;strokeWidth=2;dashPattern=8 8;" parent="1" edge="1">
          <mxGeometry width="50" height="50" relative="1" as="geometry">
            <mxPoint x="2228" y="1840" as="sourcePoint" />
            <mxPoint x="2228" y="120" as="targetPoint" />
          </mxGeometry>
        </mxCell>
        <mxCell id="BZDd44qQGY4PULbsGoYG-36" value="" style="endArrow=none;dashed=1;html=1;rounded=0;strokeWidth=2;dashPattern=8 8;" parent="1" edge="1">
          <mxGeometry width="50" height="50" relative="1" as="geometry">
            <mxPoint x="2058" y="1840" as="sourcePoint" />
            <mxPoint x="2058" y="120" as="targetPoint" />
          </mxGeometry>
        </mxCell>
        <mxCell id="BZDd44qQGY4PULbsGoYG-37" value="" style="endArrow=classic;html=1;rounded=0;" parent="1" edge="1">
          <mxGeometry width="50" height="50" relative="1" as="geometry">
            <mxPoint x="1898" y="1410" as="sourcePoint" />
            <mxPoint x="2048" y="1410" as="targetPoint" />
          </mxGeometry>
        </mxCell>
        <mxCell id="BZDd44qQGY4PULbsGoYG-38" value="" style="endArrow=classic;html=1;rounded=0;" parent="1" edge="1">
          <mxGeometry width="50" height="50" relative="1" as="geometry">
            <mxPoint x="1898" y="1550" as="sourcePoint" />
            <mxPoint x="2218" y="1550" as="targetPoint" />
          </mxGeometry>
        </mxCell>
        <mxCell id="BZDd44qQGY4PULbsGoYG-40" value="" style="rounded=0;whiteSpace=wrap;html=1;fillColor=#C3ABD0;strokeColor=#000000;" parent="1" vertex="1">
          <mxGeometry x="2053" y="1408" width="10" height="22" as="geometry" />
        </mxCell>
        <mxCell id="BZDd44qQGY4PULbsGoYG-41" value="" style="rounded=0;whiteSpace=wrap;html=1;fillColor=#C3ABD0;strokeColor=#000000;" parent="1" vertex="1">
          <mxGeometry x="2224" y="1548" width="10" height="22" as="geometry" />
        </mxCell>
        <mxCell id="39eFAmJ-lskRBzMKGl_--2" value="" style="endArrow=none;dashed=1;html=1;rounded=0;dashPattern=8 8;strokeWidth=2;" parent="1" edge="1">
          <mxGeometry width="50" height="50" relative="1" as="geometry">
            <mxPoint x="1228" y="1660" as="sourcePoint" />
            <mxPoint x="1228" y="1840" as="targetPoint" />
          </mxGeometry>
        </mxCell>
        <mxCell id="39eFAmJ-lskRBzMKGl_--3" value=": ToursHistoryHandler" style="rounded=0;whiteSpace=wrap;html=1;fontStyle=1" parent="1" vertex="1">
          <mxGeometry x="141" y="35" width="132" height="35" as="geometry" />
        </mxCell>
        <mxCell id="39eFAmJ-lskRBzMKGl_--4" value=": NewTourHandler" style="rounded=0;whiteSpace=wrap;html=1;fontStyle=1" parent="1" vertex="1">
          <mxGeometry x="280" y="35" width="132" height="35" as="geometry" />
        </mxCell>
        <mxCell id="39eFAmJ-lskRBzMKGl_--5" value="missinginfoMessage" style="rounded=0;whiteSpace=wrap;html=1;" parent="1" vertex="1">
          <mxGeometry x="425" y="35" width="115" height="30" as="geometry" />
        </mxCell>
        <mxCell id="39eFAmJ-lskRBzMKGl_--6" value="tagsList" style="rounded=0;whiteSpace=wrap;html=1;" parent="1" vertex="1">
          <mxGeometry x="560" y="35" width="90" height="30" as="geometry" />
        </mxCell>
        <mxCell id="39eFAmJ-lskRBzMKGl_--8" value=": TagsSelectHandler" style="rounded=0;whiteSpace=wrap;html=1;fontStyle=1" parent="1" vertex="1">
          <mxGeometry x="664.5" y="32.5" width="129" height="30" as="geometry" />
        </mxCell>
        <mxCell id="BBe3TnQipDQjvnbq5lU6-1" value=": FilesUploadHandler" style="rounded=0;whiteSpace=wrap;html=1;fontStyle=1" parent="1" vertex="1">
          <mxGeometry x="841" y="33" width="130" height="30" as="geometry" />
        </mxCell>
        <mxCell id="BBe3TnQipDQjvnbq5lU6-2" value="tempfiles" style="rounded=0;whiteSpace=wrap;html=1;" parent="1" vertex="1">
          <mxGeometry x="1040" y="33" width="90" height="30" as="geometry" />
        </mxCell>
        <mxCell id="BBe3TnQipDQjvnbq5lU6-3" value="invalidFilesMessage" style="rounded=0;whiteSpace=wrap;html=1;" parent="1" vertex="1">
          <mxGeometry x="1157" y="33" width="120" height="30" as="geometry" />
        </mxCell>
        <mxCell id="BBe3TnQipDQjvnbq5lU6-4" value=": PaymentMethodHandler" style="rounded=0;whiteSpace=wrap;html=1;fontStyle=1" parent="1" vertex="1">
          <mxGeometry x="1420" y="33" width="150" height="30" as="geometry" />
        </mxCell>
        <mxCell id="BBe3TnQipDQjvnbq5lU6-5" value="InvalidPaymentMenthodMessage" style="rounded=0;whiteSpace=wrap;html=1;" parent="1" vertex="1">
          <mxGeometry x="1608" y="30" width="186" height="30" as="geometry" />
        </mxCell>
        <mxCell id="BBe3TnQipDQjvnbq5lU6-8" value="" style="endArrow=none;dashed=1;html=1;rounded=0;dashPattern=8 8;strokeWidth=2;" parent="1" edge="1">
          <mxGeometry width="50" height="50" relative="1" as="geometry">
            <mxPoint x="1700.47" y="1656.5" as="sourcePoint" />
            <mxPoint x="1700" y="1840" as="targetPoint" />
          </mxGeometry>
        </mxCell>
        <mxCell id="BBe3TnQipDQjvnbq5lU6-9" value=": PublishTourHandler" style="rounded=0;whiteSpace=wrap;html=1;fontStyle=1" parent="1" vertex="1">
          <mxGeometry x="1816" y="30" width="142" height="30" as="geometry" />
        </mxCell>
        <mxCell id="BBe3TnQipDQjvnbq5lU6-10" value="publishSuccessMessage" style="rounded=0;whiteSpace=wrap;html=1;" parent="1" vertex="1">
          <mxGeometry x="1998" y="30" width="137" height="30" as="geometry" />
        </mxCell>
        <mxCell id="BBe3TnQipDQjvnbq5lU6-11" value="saveSuccessMessage" style="rounded=0;whiteSpace=wrap;html=1;" parent="1" vertex="1">
          <mxGeometry x="2160.5" y="30" width="137" height="30" as="geometry" />
        </mxCell>
        <mxCell id="BBe3TnQipDQjvnbq5lU6-12" value=":Tour" style="rounded=0;whiteSpace=wrap;html=1;fontStyle=1" parent="1" vertex="1">
          <mxGeometry x="1280" y="1189" width="70" height="30" as="geometry" />
        </mxCell>
        <mxCell id="AMErsb4KgxMv4OokVro5-1" value="" style="endArrow=classic;html=1;rounded=0;" parent="1" edge="1">
          <mxGeometry width="50" height="50" relative="1" as="geometry">
            <mxPoint x="910" y="839" as="sourcePoint" />
            <mxPoint x="1080" y="839" as="targetPoint" />
          </mxGeometry>
        </mxCell>
        <mxCell id="AMErsb4KgxMv4OokVro5-2" value="save()" style="text;html=1;align=center;verticalAlign=middle;resizable=0;points=[];autosize=1;strokeColor=none;fillColor=none;labelPosition=center;verticalLabelPosition=middle;spacing=0;" parent="1" vertex="1">
          <mxGeometry x="976" y="820" width="50" height="20" as="geometry" />
        </mxCell>
        <mxCell id="EayW94I-7yzoUiYlfZ80-1" value="ΤΗ ΣΕΛΙΔΑ 2 ΚΟΙΤΑΜΕ!!!!" style="text;html=1;strokeColor=#000000;fillColor=#fff2cc;align=center;verticalAlign=middle;whiteSpace=wrap;rounded=0;fontSize=28;gradientColor=#ffd966;strokeWidth=2;fontStyle=1" parent="1" vertex="1">
          <mxGeometry x="228" y="-140" width="216" height="120.5" as="geometry" />
        </mxCell>
      </root>
    </mxGraphModel>
  </diagram>
  <diagram id="EvInCkYq03DV5VFkY_d7" name="Page-2">
    <mxGraphModel dx="1467" dy="753" grid="1" gridSize="10" guides="1" tooltips="1" connect="1" arrows="1" fold="1" page="1" pageScale="1" pageWidth="850" pageHeight="1100" math="0" shadow="0">
      <root>
        <mxCell id="0" />
        <mxCell id="1" parent="0" />
        <mxCell id="KvzbCA3LInDABAMQcbhv-1" value="" style="endArrow=none;dashed=1;html=1;rounded=0;strokeWidth=2;dashPattern=8 8;fontStyle=1" parent="1" edge="1">
          <mxGeometry width="50" height="50" relative="1" as="geometry">
            <mxPoint x="1494" y="1720" as="sourcePoint" />
            <mxPoint x="1494" y="112.5" as="targetPoint" />
          </mxGeometry>
        </mxCell>
        <mxCell id="KvzbCA3LInDABAMQcbhv-2" value="" style="rounded=0;whiteSpace=wrap;html=1;fontStyle=1;fillColor=#f5f5f5;fontColor=#333333;strokeColor=#666666;" parent="1" vertex="1">
          <mxGeometry x="230" y="1421" width="1700" height="59" as="geometry" />
        </mxCell>
        <mxCell id="KvzbCA3LInDABAMQcbhv-3" value="" style="rounded=0;whiteSpace=wrap;html=1;fontStyle=1;fillColor=#f5f5f5;fontColor=#333333;strokeColor=#666666;" parent="1" vertex="1">
          <mxGeometry x="230" y="1330.5" width="1700" height="89.5" as="geometry" />
        </mxCell>
        <mxCell id="KvzbCA3LInDABAMQcbhv-4" value="" style="rounded=0;whiteSpace=wrap;html=1;fillColor=#f5f5f5;fontColor=#333333;strokeColor=#666666;fontStyle=1" parent="1" vertex="1">
          <mxGeometry x="230" y="1112" width="1514" height="140" as="geometry" />
        </mxCell>
        <mxCell id="KvzbCA3LInDABAMQcbhv-5" value="Payment Method is confirmed" style="text;html=1;strokeColor=none;fillColor=none;align=center;verticalAlign=middle;whiteSpace=wrap;rounded=0;spacing=0;spacingTop=0;spacingBottom=0;fontStyle=1" parent="1" vertex="1">
          <mxGeometry x="233" y="1133" width="100" height="40" as="geometry" />
        </mxCell>
        <mxCell id="KvzbCA3LInDABAMQcbhv-6" value="" style="rounded=0;whiteSpace=wrap;html=1;fillColor=#f5f5f5;fontColor=#333333;strokeColor=#666666;fontStyle=1" parent="1" vertex="1">
          <mxGeometry x="230" y="954" width="1514" height="158" as="geometry" />
        </mxCell>
        <mxCell id="KvzbCA3LInDABAMQcbhv-7" value="Alternative" style="text;html=1;strokeColor=default;fillColor=none;align=center;verticalAlign=middle;whiteSpace=wrap;rounded=0;spacing=0;spacingTop=0;spacingBottom=0;fontStyle=1" parent="1" vertex="1">
          <mxGeometry x="230" y="954" width="70" height="30" as="geometry" />
        </mxCell>
        <mxCell id="KvzbCA3LInDABAMQcbhv-8" value="Payment Method is not confirmed" style="text;html=1;strokeColor=none;fillColor=none;align=center;verticalAlign=middle;whiteSpace=wrap;rounded=0;spacing=0;spacingTop=0;spacingBottom=0;fontStyle=1" parent="1" vertex="1">
          <mxGeometry x="230" y="1037.5" width="100" height="40" as="geometry" />
        </mxCell>
        <mxCell id="KvzbCA3LInDABAMQcbhv-9" value="" style="rounded=0;whiteSpace=wrap;html=1;fillColor=#f5f5f5;fontColor=#333333;strokeColor=#666666;fontStyle=1" parent="1" vertex="1">
          <mxGeometry x="240" y="787" width="1020" height="85" as="geometry" />
        </mxCell>
        <mxCell id="KvzbCA3LInDABAMQcbhv-10" value="" style="rounded=0;whiteSpace=wrap;html=1;fillColor=#f5f5f5;fontColor=#333333;strokeColor=#666666;fontStyle=1" parent="1" vertex="1">
          <mxGeometry x="240" y="658" width="1020" height="132" as="geometry" />
        </mxCell>
        <mxCell id="KvzbCA3LInDABAMQcbhv-11" value="Alternative" style="text;html=1;strokeColor=default;fillColor=none;align=center;verticalAlign=middle;whiteSpace=wrap;rounded=0;spacing=0;spacingTop=0;spacingBottom=0;fontStyle=1" parent="1" vertex="1">
          <mxGeometry x="240" y="658" width="70" height="30" as="geometry" />
        </mxCell>
        <mxCell id="KvzbCA3LInDABAMQcbhv-12" value="" style="rounded=0;whiteSpace=wrap;html=1;fillColor=#f5f5f5;fontColor=#333333;strokeColor=#666666;fontStyle=1" parent="1" vertex="1">
          <mxGeometry x="240" y="391" width="308" height="59" as="geometry" />
        </mxCell>
        <mxCell id="KvzbCA3LInDABAMQcbhv-13" value="" style="rounded=0;whiteSpace=wrap;html=1;fillColor=#f5f5f5;fontColor=#333333;strokeColor=#666666;fontStyle=1" parent="1" vertex="1">
          <mxGeometry x="240" y="267" width="308" height="124" as="geometry" />
        </mxCell>
        <mxCell id="KvzbCA3LInDABAMQcbhv-14" value="Ξεναγός / &lt;br&gt;Πολιτιστικός οργανισμός" style="shape=umlActor;verticalLabelPosition=bottom;verticalAlign=top;html=1;outlineConnect=0;fontStyle=1;" parent="1" vertex="1">
          <mxGeometry x="78" y="20" width="30" height="60" as="geometry" />
        </mxCell>
        <mxCell id="KvzbCA3LInDABAMQcbhv-15" value="" style="endArrow=none;dashed=1;html=1;rounded=0;strokeWidth=2;dashPattern=8 8;fontStyle=1" parent="1" edge="1">
          <mxGeometry width="50" height="50" relative="1" as="geometry">
            <mxPoint x="208" y="118.33" as="sourcePoint" />
            <mxPoint x="208" y="118.33" as="targetPoint" />
          </mxGeometry>
        </mxCell>
        <mxCell id="KvzbCA3LInDABAMQcbhv-16" value="" style="endArrow=none;dashed=1;html=1;rounded=0;strokeWidth=2;dashPattern=8 8;fontStyle=1" parent="1" edge="1">
          <mxGeometry width="50" height="50" relative="1" as="geometry">
            <mxPoint x="335" y="1720" as="sourcePoint" />
            <mxPoint x="335" y="120" as="targetPoint" />
          </mxGeometry>
        </mxCell>
        <mxCell id="KvzbCA3LInDABAMQcbhv-17" value="" style="endArrow=none;dashed=1;html=1;rounded=0;strokeWidth=2;dashPattern=8 8;fontStyle=1" parent="1" edge="1">
          <mxGeometry width="50" height="50" relative="1" as="geometry">
            <mxPoint x="607.9891891891891" y="330" as="sourcePoint" />
            <mxPoint x="607.8" y="120" as="targetPoint" />
          </mxGeometry>
        </mxCell>
        <mxCell id="KvzbCA3LInDABAMQcbhv-18" value="" style="endArrow=none;dashed=1;html=1;rounded=0;strokeWidth=2;dashPattern=8 8;fontStyle=1" parent="1" source="KvzbCA3LInDABAMQcbhv-36" edge="1">
          <mxGeometry width="50" height="50" relative="1" as="geometry">
            <mxPoint x="728" y="1930" as="sourcePoint" />
            <mxPoint x="728" y="120" as="targetPoint" />
          </mxGeometry>
        </mxCell>
        <mxCell id="KvzbCA3LInDABAMQcbhv-19" value="" style="endArrow=none;dashed=1;html=1;rounded=0;strokeWidth=2;dashPattern=8 8;fontStyle=1" parent="1" target="KvzbCA3LInDABAMQcbhv-20" edge="1">
          <mxGeometry width="50" height="50" relative="1" as="geometry">
            <mxPoint x="208" y="1720" as="sourcePoint" />
            <mxPoint x="208" y="120" as="targetPoint" />
          </mxGeometry>
        </mxCell>
        <mxCell id="KvzbCA3LInDABAMQcbhv-20" value="" style="rounded=0;whiteSpace=wrap;html=1;fillColor=#C3ABD0;strokeColor=#000000;fontStyle=1" parent="1" vertex="1">
          <mxGeometry x="203" y="120" width="10" height="60" as="geometry" />
        </mxCell>
        <mxCell id="KvzbCA3LInDABAMQcbhv-21" value="" style="endArrow=none;dashed=1;html=1;rounded=0;strokeWidth=2;dashPattern=8 8;fontStyle=1" parent="1" edge="1">
          <mxGeometry width="50" height="50" relative="1" as="geometry">
            <mxPoint x="88" y="1720" as="sourcePoint" />
            <mxPoint x="88" y="120" as="targetPoint" />
          </mxGeometry>
        </mxCell>
        <mxCell id="KvzbCA3LInDABAMQcbhv-22" value="" style="endArrow=classic;html=1;rounded=0;entryX=-0.008;entryY=0.677;entryDx=0;entryDy=0;entryPerimeter=0;fontStyle=1" parent="1" target="KvzbCA3LInDABAMQcbhv-20" edge="1">
          <mxGeometry width="50" height="50" relative="1" as="geometry">
            <mxPoint x="88" y="160" as="sourcePoint" />
            <mxPoint x="308" y="150" as="targetPoint" />
          </mxGeometry>
        </mxCell>
        <mxCell id="KvzbCA3LInDABAMQcbhv-23" value="createTour()" style="text;html=1;align=center;verticalAlign=middle;resizable=0;points=[];autosize=1;strokeColor=none;fillColor=none;spacing=0;fontStyle=1" parent="1" vertex="1">
          <mxGeometry x="93" y="140" width="90" height="20" as="geometry" />
        </mxCell>
        <mxCell id="KvzbCA3LInDABAMQcbhv-24" value="" style="endArrow=classic;html=1;rounded=0;fontStyle=1" parent="1" edge="1">
          <mxGeometry width="50" height="50" relative="1" as="geometry">
            <mxPoint x="218" y="180" as="sourcePoint" />
            <mxPoint x="328" y="180" as="targetPoint" />
          </mxGeometry>
        </mxCell>
        <mxCell id="KvzbCA3LInDABAMQcbhv-25" value="show()" style="text;html=1;align=center;verticalAlign=middle;resizable=0;points=[];autosize=1;strokeColor=none;fillColor=none;labelPosition=center;verticalLabelPosition=middle;spacing=0;fontStyle=1" parent="1" vertex="1">
          <mxGeometry x="243" y="156" width="60" height="20" as="geometry" />
        </mxCell>
        <mxCell id="KvzbCA3LInDABAMQcbhv-26" value="" style="rounded=0;whiteSpace=wrap;html=1;fillColor=#C3ABD0;strokeColor=#000000;fontStyle=1" parent="1" vertex="1">
          <mxGeometry x="331" y="179" width="10" height="1401" as="geometry" />
        </mxCell>
        <mxCell id="KvzbCA3LInDABAMQcbhv-27" value="" style="endArrow=classic;html=1;rounded=0;fontStyle=1;strokeWidth=2;" parent="1" edge="1">
          <mxGeometry width="50" height="50" relative="1" as="geometry">
            <mxPoint x="90" y="214" as="sourcePoint" />
            <mxPoint x="328" y="214" as="targetPoint" />
          </mxGeometry>
        </mxCell>
        <mxCell id="KvzbCA3LInDABAMQcbhv-28" style="edgeStyle=orthogonalEdgeStyle;rounded=0;orthogonalLoop=1;jettySize=auto;html=1;exitX=0.977;exitY=0.273;exitDx=0;exitDy=0;exitPerimeter=0;fontStyle=1" parent="1" source="KvzbCA3LInDABAMQcbhv-26" edge="1">
          <mxGeometry relative="1" as="geometry">
            <mxPoint x="341" y="280" as="targetPoint" />
            <Array as="points">
              <mxPoint x="341" y="230" />
              <mxPoint x="358" y="230" />
              <mxPoint x="358" y="280" />
              <mxPoint x="343" y="280" />
            </Array>
          </mxGeometry>
        </mxCell>
        <mxCell id="KvzbCA3LInDABAMQcbhv-29" value="validateTourInfo()" style="text;html=1;align=center;verticalAlign=middle;resizable=0;points=[];autosize=1;strokeColor=none;fillColor=none;spacing=0;fontStyle=1" parent="1" vertex="1">
          <mxGeometry x="348.56" y="240" width="120" height="20" as="geometry" />
        </mxCell>
        <mxCell id="KvzbCA3LInDABAMQcbhv-30" value="Info is missing" style="text;html=1;strokeColor=none;fillColor=none;align=center;verticalAlign=middle;whiteSpace=wrap;rounded=0;spacing=0;spacingTop=0;spacingBottom=0;fontStyle=1" parent="1" vertex="1">
          <mxGeometry x="253" y="302" width="60" height="30" as="geometry" />
        </mxCell>
        <mxCell id="KvzbCA3LInDABAMQcbhv-31" value="Alternative" style="text;html=1;strokeColor=default;fillColor=none;align=center;verticalAlign=middle;whiteSpace=wrap;rounded=0;spacing=0;spacingTop=0;spacingBottom=0;fontStyle=1" parent="1" vertex="1">
          <mxGeometry x="240" y="267" width="70" height="30" as="geometry" />
        </mxCell>
        <mxCell id="KvzbCA3LInDABAMQcbhv-32" value="Info is not missing" style="text;html=1;strokeColor=none;fillColor=none;align=center;verticalAlign=middle;whiteSpace=wrap;rounded=0;spacing=0;spacingTop=0;spacingBottom=0;fontStyle=1" parent="1" vertex="1">
          <mxGeometry x="253" y="407" width="60" height="30" as="geometry" />
        </mxCell>
        <mxCell id="KvzbCA3LInDABAMQcbhv-33" value="" style="endArrow=none;dashed=1;html=1;rounded=0;strokeWidth=2;dashPattern=8 8;fontStyle=1" parent="1" edge="1" source="S3Mp6W-FUtXspHNeYu3z-2">
          <mxGeometry width="50" height="50" relative="1" as="geometry">
            <mxPoint x="608" y="1720" as="sourcePoint" />
            <mxPoint x="607.9984886649875" y="354" as="targetPoint" />
          </mxGeometry>
        </mxCell>
        <mxCell id="KvzbCA3LInDABAMQcbhv-34" value="" style="endArrow=classic;html=1;rounded=0;exitX=1.006;exitY=0.86;exitDx=0;exitDy=0;exitPerimeter=0;fontStyle=1" parent="1" edge="1">
          <mxGeometry width="50" height="50" relative="1" as="geometry">
            <mxPoint x="342.99999999999994" y="433.9999999999999" as="sourcePoint" />
            <mxPoint x="719.94" y="434.14" as="targetPoint" />
            <Array as="points">
              <mxPoint x="639.94" y="434.14" />
            </Array>
          </mxGeometry>
        </mxCell>
        <mxCell id="KvzbCA3LInDABAMQcbhv-35" value="" style="endArrow=none;dashed=1;html=1;rounded=0;strokeWidth=2;dashPattern=8 8;fontStyle=1" parent="1" target="KvzbCA3LInDABAMQcbhv-36" edge="1">
          <mxGeometry width="50" height="50" relative="1" as="geometry">
            <mxPoint x="728" y="1720" as="sourcePoint" />
            <mxPoint x="728" y="120" as="targetPoint" />
          </mxGeometry>
        </mxCell>
        <mxCell id="KvzbCA3LInDABAMQcbhv-36" value="" style="rounded=0;whiteSpace=wrap;html=1;fillColor=#C3ABD0;strokeColor=#000000;fontStyle=1" parent="1" vertex="1">
          <mxGeometry x="724" y="430" width="10" height="150" as="geometry" />
        </mxCell>
        <mxCell id="KvzbCA3LInDABAMQcbhv-37" value="" style="endArrow=classic;html=1;rounded=0;fontStyle=1;strokeWidth=2;" parent="1" edge="1">
          <mxGeometry width="50" height="50" relative="1" as="geometry">
            <mxPoint x="90" y="523" as="sourcePoint" />
            <mxPoint x="718" y="523" as="targetPoint" />
          </mxGeometry>
        </mxCell>
        <mxCell id="KvzbCA3LInDABAMQcbhv-39" value="showMessage()" style="text;html=1;align=center;verticalAlign=middle;resizable=0;points=[];autosize=1;strokeColor=none;fillColor=none;spacing=0;fontStyle=1" parent="1" vertex="1">
          <mxGeometry x="343" y="286.5" width="110" height="20" as="geometry" />
        </mxCell>
        <mxCell id="KvzbCA3LInDABAMQcbhv-40" value="" style="endArrow=classic;html=1;rounded=0;fontStyle=1" parent="1" edge="1">
          <mxGeometry width="50" height="50" relative="1" as="geometry">
            <mxPoint x="340" y="471" as="sourcePoint" />
            <mxPoint x="600" y="471" as="targetPoint" />
          </mxGeometry>
        </mxCell>
        <mxCell id="KvzbCA3LInDABAMQcbhv-41" value="loadTags()" style="text;html=1;align=center;verticalAlign=middle;resizable=0;points=[];autosize=1;strokeColor=none;fillColor=none;spacing=0;fontStyle=1" parent="1" vertex="1">
          <mxGeometry x="371" y="455" width="80" height="20" as="geometry" />
        </mxCell>
        <mxCell id="KvzbCA3LInDABAMQcbhv-42" value="" style="endArrow=classic;html=1;rounded=0;dashed=1;fontStyle=1" parent="1" edge="1">
          <mxGeometry width="50" height="50" relative="1" as="geometry">
            <mxPoint x="610" y="501" as="sourcePoint" />
            <mxPoint x="340" y="501" as="targetPoint" />
          </mxGeometry>
        </mxCell>
        <mxCell id="KvzbCA3LInDABAMQcbhv-43" value="retTagsList()" style="text;html=1;align=center;verticalAlign=middle;resizable=0;points=[];autosize=1;strokeColor=none;fillColor=none;spacing=0;fontStyle=1" parent="1" vertex="1">
          <mxGeometry x="490" y="482" width="90" height="20" as="geometry" />
        </mxCell>
        <mxCell id="KvzbCA3LInDABAMQcbhv-44" value="show()" style="text;html=1;align=center;verticalAlign=middle;resizable=0;points=[];autosize=1;strokeColor=none;fillColor=none;labelPosition=center;verticalLabelPosition=middle;spacing=0;fontStyle=1" parent="1" vertex="1">
          <mxGeometry x="391" y="414" width="60" height="20" as="geometry" />
        </mxCell>
        <mxCell id="KvzbCA3LInDABAMQcbhv-45" value="" style="rounded=0;whiteSpace=wrap;html=1;fillColor=#C3ABD0;strokeColor=#000000;fontStyle=1" parent="1" vertex="1">
          <mxGeometry x="603" y="471" width="10" height="29" as="geometry" />
        </mxCell>
        <mxCell id="KvzbCA3LInDABAMQcbhv-46" value="" style="endArrow=classic;html=1;rounded=0;entryX=-0.067;entryY=0.006;entryDx=0;entryDy=0;entryPerimeter=0;fontStyle=1" parent="1" edge="1">
          <mxGeometry width="50" height="50" relative="1" as="geometry">
            <mxPoint x="340" y="595" as="sourcePoint" />
            <mxPoint x="891.3299999999999" y="594.764" as="targetPoint" />
          </mxGeometry>
        </mxCell>
        <mxCell id="KvzbCA3LInDABAMQcbhv-47" value="" style="endArrow=none;dashed=1;html=1;rounded=0;strokeWidth=2;dashPattern=8 8;fontStyle=1" parent="1" edge="1">
          <mxGeometry width="50" height="50" relative="1" as="geometry">
            <mxPoint x="898" y="1720" as="sourcePoint" />
            <mxPoint x="898" y="120" as="targetPoint" />
          </mxGeometry>
        </mxCell>
        <mxCell id="KvzbCA3LInDABAMQcbhv-48" value="show()" style="text;html=1;align=center;verticalAlign=middle;resizable=0;points=[];autosize=1;strokeColor=none;fillColor=none;labelPosition=center;verticalLabelPosition=middle;spacing=0;fontStyle=1" parent="1" vertex="1">
          <mxGeometry x="789" y="578" width="60" height="20" as="geometry" />
        </mxCell>
        <mxCell id="KvzbCA3LInDABAMQcbhv-49" value="" style="endArrow=none;dashed=1;html=1;rounded=0;strokeWidth=2;dashPattern=8 8;fontStyle=1" parent="1" source="fRJJLuP8u1M3Tntd3Njv-3" edge="1">
          <mxGeometry width="50" height="50" relative="1" as="geometry">
            <mxPoint x="1093" y="1800" as="sourcePoint" />
            <mxPoint x="1093.33" y="121.67" as="targetPoint" />
          </mxGeometry>
        </mxCell>
        <mxCell id="KvzbCA3LInDABAMQcbhv-50" value="" style="endArrow=none;dashed=1;html=1;rounded=0;strokeWidth=2;dashPattern=8 8;fontStyle=1" parent="1" edge="1">
          <mxGeometry width="50" height="50" relative="1" as="geometry">
            <mxPoint x="1887" y="1720" as="sourcePoint" />
            <mxPoint x="1886.67" y="110.84" as="targetPoint" />
          </mxGeometry>
        </mxCell>
        <mxCell id="KvzbCA3LInDABAMQcbhv-51" value="" style="rounded=0;whiteSpace=wrap;html=1;fillColor=#C3ABD0;strokeColor=#000000;fontStyle=1" parent="1" vertex="1">
          <mxGeometry x="892" y="590" width="10" height="270" as="geometry" />
        </mxCell>
        <mxCell id="KvzbCA3LInDABAMQcbhv-52" value="" style="endArrow=classic;html=1;rounded=0;fontStyle=1;strokeWidth=2;" parent="1" edge="1">
          <mxGeometry width="50" height="50" relative="1" as="geometry">
            <mxPoint x="90" y="630" as="sourcePoint" />
            <mxPoint x="891" y="626" as="targetPoint" />
          </mxGeometry>
        </mxCell>
        <mxCell id="KvzbCA3LInDABAMQcbhv-53" value="checkFileSize()" style="text;html=1;align=center;verticalAlign=middle;resizable=0;points=[];autosize=1;strokeColor=none;fillColor=none;spacing=0;fontStyle=1" parent="1" vertex="1">
          <mxGeometry x="909" y="631" width="110" height="20" as="geometry" />
        </mxCell>
        <mxCell id="KvzbCA3LInDABAMQcbhv-54" value="" style="endArrow=classic;html=1;rounded=0;fontStyle=1" parent="1" edge="1">
          <mxGeometry width="50" height="50" relative="1" as="geometry">
            <mxPoint x="344" y="650" as="sourcePoint" />
            <mxPoint x="1082" y="650" as="targetPoint" />
          </mxGeometry>
        </mxCell>
        <mxCell id="KvzbCA3LInDABAMQcbhv-55" value="" style="rounded=0;whiteSpace=wrap;html=1;fillColor=#C3ABD0;strokeColor=#000000;fontStyle=1" parent="1" vertex="1">
          <mxGeometry x="1088" y="651" width="10" height="189" as="geometry" />
        </mxCell>
        <mxCell id="KvzbCA3LInDABAMQcbhv-56" value="" style="endArrow=classic;html=1;rounded=0;dashed=1;exitX=0.5;exitY=1;exitDx=0;exitDy=0;fontStyle=1" parent="1" edge="1">
          <mxGeometry width="50" height="50" relative="1" as="geometry">
            <mxPoint x="1084" y="807" as="sourcePoint" />
            <mxPoint x="347" y="810" as="targetPoint" />
          </mxGeometry>
        </mxCell>
        <mxCell id="KvzbCA3LInDABAMQcbhv-57" value="FileSize OK" style="text;html=1;align=center;verticalAlign=middle;resizable=0;points=[];autosize=1;strokeColor=none;fillColor=none;spacing=0;fontStyle=1" parent="1" vertex="1">
          <mxGeometry x="953" y="787" width="90" height="20" as="geometry" />
        </mxCell>
        <mxCell id="KvzbCA3LInDABAMQcbhv-58" value="" style="endArrow=classic;html=1;rounded=0;dashed=1;exitX=0.5;exitY=1;exitDx=0;exitDy=0;fontStyle=1" parent="1" edge="1">
          <mxGeometry width="50" height="50" relative="1" as="geometry">
            <mxPoint x="1085" y="693" as="sourcePoint" />
            <mxPoint x="345.62068965517244" y="694" as="targetPoint" />
          </mxGeometry>
        </mxCell>
        <mxCell id="KvzbCA3LInDABAMQcbhv-59" value="FileSize too big" style="text;html=1;align=center;verticalAlign=middle;resizable=0;points=[];autosize=1;strokeColor=none;fillColor=none;spacing=0;fontStyle=1" parent="1" vertex="1">
          <mxGeometry x="923" y="674" width="110" height="20" as="geometry" />
        </mxCell>
        <mxCell id="KvzbCA3LInDABAMQcbhv-60" value="showMessage()" style="text;html=1;align=center;verticalAlign=middle;resizable=0;points=[];autosize=1;strokeColor=none;fillColor=none;spacing=0;fontStyle=1" parent="1" vertex="1">
          <mxGeometry x="930" y="708" width="110" height="20" as="geometry" />
        </mxCell>
        <mxCell id="KvzbCA3LInDABAMQcbhv-61" value="Files are too big" style="text;html=1;strokeColor=none;fillColor=none;align=center;verticalAlign=middle;whiteSpace=wrap;rounded=0;spacing=0;spacingTop=0;spacingBottom=0;fontStyle=1" parent="1" vertex="1">
          <mxGeometry x="248" y="698" width="60" height="30" as="geometry" />
        </mxCell>
        <mxCell id="KvzbCA3LInDABAMQcbhv-62" value="Files size is in limits" style="text;html=1;strokeColor=none;fillColor=none;align=center;verticalAlign=middle;whiteSpace=wrap;rounded=0;spacing=0;spacingTop=0;spacingBottom=0;fontStyle=1" parent="1" vertex="1">
          <mxGeometry x="248" y="817" width="60" height="30" as="geometry" />
        </mxCell>
        <mxCell id="KvzbCA3LInDABAMQcbhv-63" value="" style="endArrow=classic;html=1;rounded=0;fontStyle=1" parent="1" edge="1">
          <mxGeometry width="50" height="50" relative="1" as="geometry">
            <mxPoint x="350" y="862" as="sourcePoint" />
            <mxPoint x="1488" y="862" as="targetPoint" />
            <Array as="points">
              <mxPoint x="1158" y="862" />
            </Array>
          </mxGeometry>
        </mxCell>
        <mxCell id="KvzbCA3LInDABAMQcbhv-64" value="show()" style="text;html=1;align=center;verticalAlign=middle;resizable=0;points=[];autosize=1;strokeColor=none;fillColor=none;labelPosition=center;verticalLabelPosition=middle;spacing=0;fontStyle=1" parent="1" vertex="1">
          <mxGeometry x="963" y="842" width="60" height="20" as="geometry" />
        </mxCell>
        <mxCell id="KvzbCA3LInDABAMQcbhv-65" value="" style="rounded=0;whiteSpace=wrap;html=1;fillColor=#C3ABD0;strokeColor=#000000;fontStyle=1" parent="1" vertex="1">
          <mxGeometry x="1489" y="860" width="10" height="370" as="geometry" />
        </mxCell>
        <mxCell id="KvzbCA3LInDABAMQcbhv-66" value="" style="endArrow=classic;html=1;rounded=0;fontStyle=1;strokeWidth=2;" parent="1" edge="1">
          <mxGeometry width="50" height="50" relative="1" as="geometry">
            <mxPoint x="90" y="890" as="sourcePoint" />
            <mxPoint x="1488" y="890" as="targetPoint" />
          </mxGeometry>
        </mxCell>
        <mxCell id="KvzbCA3LInDABAMQcbhv-67" value="validatePaymentMethod()" style="text;html=1;align=center;verticalAlign=middle;resizable=0;points=[];autosize=1;strokeColor=none;fillColor=none;spacing=0;fontStyle=1" parent="1" vertex="1">
          <mxGeometry x="342" y="908.5" width="160" height="20" as="geometry" />
        </mxCell>
        <mxCell id="KvzbCA3LInDABAMQcbhv-68" value="" style="endArrow=classic;html=1;rounded=0;fontStyle=1" parent="1" edge="1">
          <mxGeometry width="50" height="50" relative="1" as="geometry">
            <mxPoint x="341" y="924.5" as="sourcePoint" />
            <mxPoint x="341" y="964.5" as="targetPoint" />
            <Array as="points">
              <mxPoint x="371" y="924.5" />
              <mxPoint x="371" y="964.5" />
            </Array>
          </mxGeometry>
        </mxCell>
        <mxCell id="KvzbCA3LInDABAMQcbhv-69" value="showMessage()" style="text;html=1;align=center;verticalAlign=middle;resizable=0;points=[];autosize=1;strokeColor=none;fillColor=none;spacing=0;fontStyle=1" parent="1" vertex="1">
          <mxGeometry x="1535" y="969" width="110" height="20" as="geometry" />
        </mxCell>
        <mxCell id="KvzbCA3LInDABAMQcbhv-70" value="create()" style="text;html=1;align=center;verticalAlign=middle;resizable=0;points=[];autosize=1;strokeColor=none;fillColor=none;labelPosition=center;verticalLabelPosition=middle;spacing=0;fontStyle=1" parent="1" vertex="1">
          <mxGeometry x="1138" y="1186" width="60" height="20" as="geometry" />
        </mxCell>
        <mxCell id="KvzbCA3LInDABAMQcbhv-72" value="show()" style="text;html=1;align=center;verticalAlign=middle;resizable=0;points=[];autosize=1;strokeColor=none;fillColor=none;labelPosition=center;verticalLabelPosition=middle;spacing=0;fontStyle=1" parent="1" vertex="1">
          <mxGeometry x="1590.33" y="1211" width="60" height="20" as="geometry" />
        </mxCell>
        <mxCell id="KvzbCA3LInDABAMQcbhv-73" value="" style="endArrow=classic;html=1;rounded=0;exitX=1;exitY=0.665;exitDx=0;exitDy=0;exitPerimeter=0;fontStyle=1;dashed=1;dashPattern=8 8;" parent="1" edge="1">
          <mxGeometry width="50" height="50" relative="1" as="geometry">
            <mxPoint x="341" y="1210.7649999999999" as="sourcePoint" />
            <mxPoint x="1270" y="1207" as="targetPoint" />
          </mxGeometry>
        </mxCell>
        <mxCell id="KvzbCA3LInDABAMQcbhv-74" value="" style="rounded=0;whiteSpace=wrap;html=1;fillColor=#C3ABD0;strokeColor=#000000;fontStyle=1" parent="1" vertex="1">
          <mxGeometry x="1882" y="1240" width="10" height="360" as="geometry" />
        </mxCell>
        <mxCell id="KvzbCA3LInDABAMQcbhv-76" value="setPublic(true)" style="text;html=1;align=center;verticalAlign=middle;resizable=0;points=[];autosize=1;strokeColor=none;fillColor=none;labelPosition=center;verticalLabelPosition=middle;spacing=0;fontStyle=1" parent="1" vertex="1">
          <mxGeometry x="937" y="1335.5" width="100" height="20" as="geometry" />
        </mxCell>
        <mxCell id="KvzbCA3LInDABAMQcbhv-79" value="Alternative" style="text;html=1;strokeColor=default;fillColor=none;align=center;verticalAlign=middle;whiteSpace=wrap;rounded=0;spacing=0;spacingTop=0;spacingBottom=0;fontStyle=1" parent="1" vertex="1">
          <mxGeometry x="230" y="1330.5" width="70" height="29.5" as="geometry" />
        </mxCell>
        <mxCell id="KvzbCA3LInDABAMQcbhv-80" value="Confirmation for publishing" style="text;html=1;strokeColor=none;fillColor=none;align=center;verticalAlign=middle;whiteSpace=wrap;rounded=0;spacing=0;spacingTop=0;spacingBottom=0;fontStyle=1" parent="1" vertex="1">
          <mxGeometry x="230" y="1370" width="100" height="40" as="geometry" />
        </mxCell>
        <mxCell id="KvzbCA3LInDABAMQcbhv-81" value="Confirmation for saving" style="text;html=1;strokeColor=none;fillColor=none;align=center;verticalAlign=middle;whiteSpace=wrap;rounded=0;spacing=0;spacingTop=0;spacingBottom=0;fontStyle=1" parent="1" vertex="1">
          <mxGeometry x="232" y="1430" width="100" height="43.5" as="geometry" />
        </mxCell>
        <mxCell id="KvzbCA3LInDABAMQcbhv-83" value="" style="rounded=0;whiteSpace=wrap;html=1;fillColor=#C3ABD0;strokeColor=#000000;fontStyle=1" parent="1" vertex="1">
          <mxGeometry x="202" y="1559" width="10" height="131" as="geometry" />
        </mxCell>
        <mxCell id="KvzbCA3LInDABAMQcbhv-84" value="show()" style="text;html=1;align=center;verticalAlign=middle;resizable=0;points=[];autosize=1;strokeColor=none;fillColor=none;labelPosition=center;verticalLabelPosition=middle;spacing=0;fontStyle=1" parent="1" vertex="1">
          <mxGeometry x="240" y="1535" width="60" height="20" as="geometry" />
        </mxCell>
        <mxCell id="KvzbCA3LInDABAMQcbhv-85" value="" style="endArrow=classic;html=1;rounded=0;fontStyle=1" parent="1" edge="1">
          <mxGeometry width="50" height="50" relative="1" as="geometry">
            <mxPoint x="345" y="307" as="sourcePoint" />
            <mxPoint x="465" y="307" as="targetPoint" />
          </mxGeometry>
        </mxCell>
        <mxCell id="KvzbCA3LInDABAMQcbhv-86" style="edgeStyle=orthogonalEdgeStyle;rounded=0;orthogonalLoop=1;jettySize=auto;html=1;exitX=0.977;exitY=0.273;exitDx=0;exitDy=0;exitPerimeter=0;entryX=1.044;entryY=0.736;entryDx=0;entryDy=0;entryPerimeter=0;fontStyle=1" parent="1" edge="1">
          <mxGeometry relative="1" as="geometry">
            <mxPoint x="340.99999999999983" y="378.53600000000006" as="targetPoint" />
            <Array as="points">
              <mxPoint x="358.56" y="348" />
              <mxPoint x="358.56" y="379" />
            </Array>
            <mxPoint x="341.56" y="348" as="sourcePoint" />
          </mxGeometry>
        </mxCell>
        <mxCell id="KvzbCA3LInDABAMQcbhv-87" value="validateTourInfo()" style="text;html=1;align=center;verticalAlign=middle;resizable=0;points=[];autosize=1;strokeColor=none;fillColor=none;spacing=0;fontStyle=1" parent="1" vertex="1">
          <mxGeometry x="354" y="347" width="120" height="20" as="geometry" />
        </mxCell>
        <mxCell id="KvzbCA3LInDABAMQcbhv-88" value="" style="endArrow=classic;html=1;rounded=0;fontStyle=1;strokeWidth=2;" parent="1" edge="1">
          <mxGeometry width="50" height="50" relative="1" as="geometry">
            <mxPoint x="90" y="339" as="sourcePoint" />
            <mxPoint x="326" y="339" as="targetPoint" />
          </mxGeometry>
        </mxCell>
        <mxCell id="KvzbCA3LInDABAMQcbhv-89" value="" style="endArrow=none;dashed=1;html=1;rounded=0;strokeWidth=2;dashPattern=8 8;fontStyle=1" parent="1" edge="1">
          <mxGeometry width="50" height="50" relative="1" as="geometry">
            <mxPoint x="480" y="1720" as="sourcePoint" />
            <mxPoint x="480" y="120" as="targetPoint" />
          </mxGeometry>
        </mxCell>
        <mxCell id="KvzbCA3LInDABAMQcbhv-90" value="" style="rounded=0;whiteSpace=wrap;html=1;fillColor=#C3ABD0;strokeColor=#000000;fontStyle=1" parent="1" vertex="1">
          <mxGeometry x="474" y="306.5" width="10" height="20" as="geometry" />
        </mxCell>
        <mxCell id="KvzbCA3LInDABAMQcbhv-91" value="" style="endArrow=none;dashed=1;html=1;rounded=0;strokeWidth=2;dashPattern=8 8;fontStyle=1" parent="1" edge="1">
          <mxGeometry width="50" height="50" relative="1" as="geometry">
            <mxPoint x="1214.0177705977385" y="728" as="sourcePoint" />
            <mxPoint x="1215" y="120.00000000000001" as="targetPoint" />
          </mxGeometry>
        </mxCell>
        <mxCell id="KvzbCA3LInDABAMQcbhv-92" value="" style="endArrow=classic;html=1;rounded=0;fontStyle=1" parent="1" edge="1">
          <mxGeometry width="50" height="50" relative="1" as="geometry">
            <mxPoint x="346" y="730" as="sourcePoint" />
            <mxPoint x="1204" y="728" as="targetPoint" />
          </mxGeometry>
        </mxCell>
        <mxCell id="KvzbCA3LInDABAMQcbhv-93" value="" style="endArrow=none;dashed=1;html=1;rounded=0;strokeWidth=2;dashPattern=8 8;fontStyle=1" parent="1" edge="1">
          <mxGeometry width="50" height="50" relative="1" as="geometry">
            <mxPoint x="1218" y="1320" as="sourcePoint" />
            <mxPoint x="1215.027477102416" y="750" as="targetPoint" />
          </mxGeometry>
        </mxCell>
        <mxCell id="KvzbCA3LInDABAMQcbhv-94" value="" style="rounded=0;whiteSpace=wrap;html=1;fillColor=#C3ABD0;strokeColor=#000000;fontStyle=1" parent="1" vertex="1">
          <mxGeometry x="1209" y="728" width="10" height="22" as="geometry" />
        </mxCell>
        <mxCell id="KvzbCA3LInDABAMQcbhv-95" value="" style="endArrow=classic;html=1;rounded=0;fontStyle=1;strokeWidth=2;" parent="1" edge="1">
          <mxGeometry width="50" height="50" relative="1" as="geometry">
            <mxPoint x="90" y="750" as="sourcePoint" />
            <mxPoint x="888" y="750" as="targetPoint" />
          </mxGeometry>
        </mxCell>
        <mxCell id="KvzbCA3LInDABAMQcbhv-96" value="checkFileSize()" style="text;html=1;align=center;verticalAlign=middle;resizable=0;points=[];autosize=1;strokeColor=none;fillColor=none;spacing=0;fontStyle=1" parent="1" vertex="1">
          <mxGeometry x="908" y="750" width="110" height="20" as="geometry" />
        </mxCell>
        <mxCell id="KvzbCA3LInDABAMQcbhv-97" value="" style="endArrow=classic;html=1;rounded=0;fontStyle=1" parent="1" edge="1">
          <mxGeometry width="50" height="50" relative="1" as="geometry">
            <mxPoint x="350" y="770" as="sourcePoint" />
            <mxPoint x="1087" y="769" as="targetPoint" />
          </mxGeometry>
        </mxCell>
        <mxCell id="KvzbCA3LInDABAMQcbhv-98" value="" style="endArrow=none;dashed=1;html=1;rounded=0;strokeWidth=2;dashPattern=8 8;fontStyle=1" parent="1" edge="1">
          <mxGeometry width="50" height="50" relative="1" as="geometry">
            <mxPoint x="1701" y="1320" as="sourcePoint" />
            <mxPoint x="1701.33" y="112.5" as="targetPoint" />
          </mxGeometry>
        </mxCell>
        <mxCell id="KvzbCA3LInDABAMQcbhv-99" value="" style="endArrow=classic;html=1;rounded=0;exitX=1.5;exitY=0.521;exitDx=0;exitDy=0;exitPerimeter=0;fontStyle=1" parent="1" edge="1">
          <mxGeometry width="50" height="50" relative="1" as="geometry">
            <mxPoint x="346" y="989.3610000000003" as="sourcePoint" />
            <mxPoint x="1690" y="989.5" as="targetPoint" />
          </mxGeometry>
        </mxCell>
        <mxCell id="KvzbCA3LInDABAMQcbhv-100" value="" style="rounded=0;whiteSpace=wrap;html=1;fillColor=#C3ABD0;strokeColor=#000000;fontStyle=1" parent="1" vertex="1">
          <mxGeometry x="1696" y="989" width="10" height="22" as="geometry" />
        </mxCell>
        <mxCell id="KvzbCA3LInDABAMQcbhv-101" value="" style="endArrow=classic;html=1;rounded=0;fontStyle=1;strokeWidth=2;" parent="1" edge="1">
          <mxGeometry width="50" height="50" relative="1" as="geometry">
            <mxPoint x="90" y="1025" as="sourcePoint" />
            <mxPoint x="1487" y="1025" as="targetPoint" />
          </mxGeometry>
        </mxCell>
        <mxCell id="KvzbCA3LInDABAMQcbhv-102" value="validatePaymentMethod()" style="text;html=1;align=center;verticalAlign=middle;resizable=0;points=[];autosize=1;strokeColor=none;fillColor=none;spacing=0;fontStyle=1" parent="1" vertex="1">
          <mxGeometry x="341" y="1032" width="160" height="20" as="geometry" />
        </mxCell>
        <mxCell id="KvzbCA3LInDABAMQcbhv-103" value="" style="endArrow=classic;html=1;rounded=0;fontStyle=1" parent="1" edge="1">
          <mxGeometry width="50" height="50" relative="1" as="geometry">
            <mxPoint x="341" y="1048" as="sourcePoint" />
            <mxPoint x="340" y="1088" as="targetPoint" />
            <Array as="points">
              <mxPoint x="370" y="1048" />
              <mxPoint x="370" y="1088" />
            </Array>
          </mxGeometry>
        </mxCell>
        <mxCell id="KvzbCA3LInDABAMQcbhv-104" value="" style="endArrow=none;dashed=1;html=1;rounded=0;strokeWidth=2;dashPattern=8 8;fontStyle=1" parent="1" target="KvzbCA3LInDABAMQcbhv-105" edge="1">
          <mxGeometry width="50" height="50" relative="1" as="geometry">
            <mxPoint x="1317" y="1720" as="sourcePoint" />
            <mxPoint x="1317" y="1232.5" as="targetPoint" />
          </mxGeometry>
        </mxCell>
        <mxCell id="KvzbCA3LInDABAMQcbhv-105" value="" style="rounded=0;whiteSpace=wrap;html=1;fillColor=#C3ABD0;strokeColor=#000000;fontStyle=1" parent="1" vertex="1">
          <mxGeometry x="1312" y="1230" width="10" height="250" as="geometry" />
        </mxCell>
        <mxCell id="KvzbCA3LInDABAMQcbhv-114" value="" style="endArrow=none;dashed=1;html=1;rounded=0;dashPattern=8 8;strokeWidth=2;fontStyle=1;exitX=0.581;exitY=1.037;exitDx=0;exitDy=0;exitPerimeter=0;" parent="1" source="KvzbCA3LInDABAMQcbhv-2" edge="1">
          <mxGeometry width="50" height="50" relative="1" as="geometry">
            <mxPoint x="1228" y="1590" as="sourcePoint" />
            <mxPoint x="1220" y="1720" as="targetPoint" />
          </mxGeometry>
        </mxCell>
        <mxCell id="KvzbCA3LInDABAMQcbhv-115" value=": ToursHistoryController" style="rounded=0;whiteSpace=wrap;html=1;fontStyle=1" parent="1" vertex="1">
          <mxGeometry x="130" y="35" width="143" height="35" as="geometry" />
        </mxCell>
        <mxCell id="KvzbCA3LInDABAMQcbhv-116" value=": NewTourController" style="rounded=0;whiteSpace=wrap;html=1;fontStyle=1" parent="1" vertex="1">
          <mxGeometry x="280" y="35" width="132" height="35" as="geometry" />
        </mxCell>
        <mxCell id="KvzbCA3LInDABAMQcbhv-117" value="missinginfoMessage" style="rounded=0;whiteSpace=wrap;html=1;fontStyle=0" parent="1" vertex="1">
          <mxGeometry x="424" y="37" width="115" height="30" as="geometry" />
        </mxCell>
        <mxCell id="KvzbCA3LInDABAMQcbhv-118" value="&lt;b&gt;: DBCommunicator&lt;/b&gt;" style="rounded=0;whiteSpace=wrap;html=1;fontStyle=0" parent="1" vertex="1">
          <mxGeometry x="544" y="38" width="120" height="30" as="geometry" />
        </mxCell>
        <mxCell id="KvzbCA3LInDABAMQcbhv-119" value="TagsSelectView" style="rounded=0;whiteSpace=wrap;html=1;fontStyle=0" parent="1" vertex="1">
          <mxGeometry x="667.5" y="38.5" width="129" height="30" as="geometry" />
        </mxCell>
        <mxCell id="KvzbCA3LInDABAMQcbhv-120" value="FilesUploadView" style="rounded=0;whiteSpace=wrap;html=1;fontStyle=0" parent="1" vertex="1">
          <mxGeometry x="841" y="41" width="130" height="30" as="geometry" />
        </mxCell>
        <mxCell id="KvzbCA3LInDABAMQcbhv-121" value="userfiles" style="rounded=0;whiteSpace=wrap;html=1;fontStyle=0" parent="1" vertex="1">
          <mxGeometry x="1046" y="43" width="90" height="30" as="geometry" />
        </mxCell>
        <mxCell id="KvzbCA3LInDABAMQcbhv-122" value="invalidFilesMessage" style="rounded=0;whiteSpace=wrap;html=1;fontStyle=0" parent="1" vertex="1">
          <mxGeometry x="1157" y="43" width="120" height="30" as="geometry" />
        </mxCell>
        <mxCell id="KvzbCA3LInDABAMQcbhv-123" value="PaymentMethodView" style="rounded=0;whiteSpace=wrap;html=1;fontStyle=0" parent="1" vertex="1">
          <mxGeometry x="1420" y="43" width="150" height="30" as="geometry" />
        </mxCell>
        <mxCell id="KvzbCA3LInDABAMQcbhv-124" value="InvalidPaymentMenthodMessage" style="rounded=0;whiteSpace=wrap;html=1;fontStyle=0" parent="1" vertex="1">
          <mxGeometry x="1608" y="43" width="186" height="30" as="geometry" />
        </mxCell>
        <mxCell id="KvzbCA3LInDABAMQcbhv-125" value="" style="endArrow=none;dashed=1;html=1;rounded=0;dashPattern=8 8;strokeWidth=2;fontStyle=1" parent="1" edge="1">
          <mxGeometry width="50" height="50" relative="1" as="geometry">
            <mxPoint x="1700" y="1490" as="sourcePoint" />
            <mxPoint x="1700" y="1720" as="targetPoint" />
          </mxGeometry>
        </mxCell>
        <mxCell id="KvzbCA3LInDABAMQcbhv-126" value="PublishTourView" style="rounded=0;whiteSpace=wrap;html=1;fontStyle=0" parent="1" vertex="1">
          <mxGeometry x="1816" y="43" width="142" height="30" as="geometry" />
        </mxCell>
        <mxCell id="KvzbCA3LInDABAMQcbhv-129" value="New : Tour" style="rounded=0;whiteSpace=wrap;html=1;fontStyle=1" parent="1" vertex="1">
          <mxGeometry x="1280" y="1192" width="70" height="30" as="geometry" />
        </mxCell>
        <mxCell id="Bn2M3A3qwM46qSn0x8CS-1" value="" style="endArrow=classic;html=1;rounded=0;fontStyle=1;dashed=1;" parent="1" edge="1">
          <mxGeometry width="50" height="50" relative="1" as="geometry">
            <mxPoint x="1870" y="1314" as="sourcePoint" />
            <mxPoint x="347.89473684210526" y="1314" as="targetPoint" />
          </mxGeometry>
        </mxCell>
        <mxCell id="Bn2M3A3qwM46qSn0x8CS-2" value="retchoice()" style="text;html=1;align=center;verticalAlign=middle;resizable=0;points=[];autosize=1;strokeColor=none;fillColor=none;labelPosition=center;verticalLabelPosition=middle;spacing=0;fontStyle=1" parent="1" vertex="1">
          <mxGeometry x="1590.33" y="1296" width="80" height="20" as="geometry" />
        </mxCell>
        <mxCell id="fRJJLuP8u1M3Tntd3Njv-1" value="" style="endArrow=classic;html=1;rounded=0;" parent="1" edge="1">
          <mxGeometry width="50" height="50" relative="1" as="geometry">
            <mxPoint x="341" y="1158" as="sourcePoint" />
            <mxPoint x="1081" y="1158" as="targetPoint" />
          </mxGeometry>
        </mxCell>
        <mxCell id="fRJJLuP8u1M3Tntd3Njv-2" value="save_files()" style="text;html=1;align=center;verticalAlign=middle;resizable=0;points=[];autosize=1;strokeColor=none;fillColor=none;labelPosition=center;verticalLabelPosition=middle;spacing=0;fontStyle=1" parent="1" vertex="1">
          <mxGeometry x="962" y="1139" width="80" height="20" as="geometry" />
        </mxCell>
        <mxCell id="fRJJLuP8u1M3Tntd3Njv-4" value="" style="endArrow=none;dashed=1;html=1;rounded=0;strokeWidth=2;dashPattern=8 8;fontStyle=1" parent="1" target="fRJJLuP8u1M3Tntd3Njv-3" edge="1">
          <mxGeometry width="50" height="50" relative="1" as="geometry">
            <mxPoint x="1093" y="1720" as="sourcePoint" />
            <mxPoint x="1093.33" y="121.67" as="targetPoint" />
          </mxGeometry>
        </mxCell>
        <mxCell id="fRJJLuP8u1M3Tntd3Njv-3" value="" style="rounded=0;whiteSpace=wrap;html=1;fillColor=#C3ABD0;strokeColor=#000000;fontStyle=1" parent="1" vertex="1">
          <mxGeometry x="1088" y="1156.5" width="10" height="22" as="geometry" />
        </mxCell>
        <mxCell id="X7QbmjjPApm-gh6QekOg-1" value="" style="endArrow=classic;html=1;rounded=0;dashed=1;fontStyle=1" parent="1" edge="1">
          <mxGeometry width="50" height="50" relative="1" as="geometry">
            <mxPoint x="720" y="560" as="sourcePoint" />
            <mxPoint x="347.5" y="560" as="targetPoint" />
          </mxGeometry>
        </mxCell>
        <mxCell id="X7QbmjjPApm-gh6QekOg-2" value="retTagsSelect()" style="text;html=1;align=center;verticalAlign=middle;resizable=0;points=[];autosize=1;strokeColor=none;fillColor=none;spacing=0;fontStyle=1" parent="1" vertex="1">
          <mxGeometry x="503" y="540" width="110" height="20" as="geometry" />
        </mxCell>
        <mxCell id="KvzbCA3LInDABAMQcbhv-71" value="" style="endArrow=classic;html=1;rounded=0;fontStyle=1" parent="1" edge="1">
          <mxGeometry width="50" height="50" relative="1" as="geometry">
            <mxPoint x="350" y="1239" as="sourcePoint" />
            <mxPoint x="1870" y="1238.5" as="targetPoint" />
            <Array as="points" />
          </mxGeometry>
        </mxCell>
        <mxCell id="JSqFt6WXxpfmSx7Xg1aU-1" value="" style="endArrow=classic;html=1;rounded=0;" parent="1" edge="1">
          <mxGeometry width="50" height="50" relative="1" as="geometry">
            <mxPoint x="320" y="1560" as="sourcePoint" />
            <mxPoint x="220" y="1560" as="targetPoint" />
          </mxGeometry>
        </mxCell>
        <mxCell id="JSqFt6WXxpfmSx7Xg1aU-4" value="store()" style="text;html=1;align=center;verticalAlign=middle;resizable=0;points=[];autosize=1;strokeColor=none;fillColor=none;labelPosition=center;verticalLabelPosition=middle;spacing=0;fontStyle=1" parent="1" vertex="1">
          <mxGeometry x="1120" y="1248" width="60" height="20" as="geometry" />
        </mxCell>
        <mxCell id="JSqFt6WXxpfmSx7Xg1aU-6" value="store()" style="text;html=1;align=center;verticalAlign=middle;resizable=0;points=[];autosize=1;strokeColor=none;fillColor=none;labelPosition=center;verticalLabelPosition=middle;spacing=0;fontStyle=1" parent="1" vertex="1">
          <mxGeometry x="1120" y="1360" width="60" height="20" as="geometry" />
        </mxCell>
        <mxCell id="S3Mp6W-FUtXspHNeYu3z-4" value="" style="endArrow=none;dashed=1;html=1;rounded=0;strokeWidth=2;dashPattern=8 8;fontStyle=1" edge="1" parent="1" target="S3Mp6W-FUtXspHNeYu3z-2">
          <mxGeometry width="50" height="50" relative="1" as="geometry">
            <mxPoint x="608" y="1720" as="sourcePoint" />
            <mxPoint x="607.9984886649875" y="354" as="targetPoint" />
          </mxGeometry>
        </mxCell>
        <mxCell id="S3Mp6W-FUtXspHNeYu3z-2" value="" style="rounded=0;whiteSpace=wrap;html=1;fillColor=#C3ABD0;strokeColor=#000000;fontStyle=1" vertex="1" parent="1">
          <mxGeometry x="603" y="1269" width="10" height="131" as="geometry" />
        </mxCell>
        <mxCell id="S3Mp6W-FUtXspHNeYu3z-5" value="" style="endArrow=classic;html=1;rounded=0;" edge="1" parent="1">
          <mxGeometry width="50" height="50" relative="1" as="geometry">
            <mxPoint x="1310" y="1268" as="sourcePoint" />
            <mxPoint x="620" y="1268" as="targetPoint" />
          </mxGeometry>
        </mxCell>
        <mxCell id="KvzbCA3LInDABAMQcbhv-107" value="" style="endArrow=classic;html=1;rounded=0;fontStyle=1;strokeWidth=2;" parent="1" edge="1">
          <mxGeometry width="50" height="50" relative="1" as="geometry">
            <mxPoint x="96" y="1289" as="sourcePoint" />
            <mxPoint x="1878" y="1285" as="targetPoint" />
          </mxGeometry>
        </mxCell>
        <mxCell id="KvzbCA3LInDABAMQcbhv-75" value="" style="endArrow=classic;html=1;rounded=0;fontStyle=1;exitX=1.002;exitY=0.84;exitDx=0;exitDy=0;exitPerimeter=0;" parent="1" source="KvzbCA3LInDABAMQcbhv-26" edge="1">
          <mxGeometry width="50" height="50" relative="1" as="geometry">
            <mxPoint x="1878" y="1357" as="sourcePoint" />
            <mxPoint x="1300" y="1358" as="targetPoint" />
          </mxGeometry>
        </mxCell>
        <mxCell id="S3Mp6W-FUtXspHNeYu3z-6" value="" style="endArrow=classic;html=1;rounded=0;entryX=1.024;entryY=0.846;entryDx=0;entryDy=0;entryPerimeter=0;" edge="1" parent="1" target="S3Mp6W-FUtXspHNeYu3z-2">
          <mxGeometry width="50" height="50" relative="1" as="geometry">
            <mxPoint x="1310" y="1380" as="sourcePoint" />
            <mxPoint x="610" y="1383.044" as="targetPoint" />
          </mxGeometry>
        </mxCell>
      </root>
    </mxGraphModel>
  </diagram>
</mxfile>
